<?xml version="1.0" encoding="UTF-8"?>
<!DOCTYPE svg PUBLIC "-//W3C//DTD SVG 1.1//EN" "http://www.w3.org/Graphics/SVG/1.1/DTD/svg11.dtd">
<svg xmlns="http://www.w3.org/2000/svg" version="1.1" width="912px" height="918px" style="shape-rendering:geometricPrecision; text-rendering:geometricPrecision; image-rendering:optimizeQuality; fill-rule:evenodd; clip-rule:evenodd" xmlns:xlink="http://www.w3.org/1999/xlink">
<g><path style="opacity:1" fill="#fefefe" d="M -0.5,-0.5 C 139.833,-0.5 280.167,-0.5 420.5,-0.5C 404.301,1.92311 387.968,4.08978 371.5,6C 365.325,7.23348 359.325,8.73348 353.5,10.5C 341.879,13.1547 330.213,15.6547 318.5,18C 258.422,38.3721 203.756,68.7054 154.5,109C 147.671,116.328 140.337,123.161 132.5,129.5C 114.342,148.313 97.3422,167.98 81.5,188.5C 60.0941,219.965 41.7608,253.298 26.5,288.5C 21.8115,302.938 16.9781,317.272 12,331.5C 10.2503,336.676 9.41693,342.009 9.5,347.5C 8.26007,350.024 7.0934,352.691 6,355.5C 4.262,365.501 2.762,375.501 1.5,385.5C 0.765886,386.708 0.432553,388.041 0.5,389.5C 0.166667,389.5 -0.166667,389.5 -0.5,389.5C -0.5,259.5 -0.5,129.5 -0.5,-0.5 Z"/></g>
<g><path style="opacity:1" fill="#fefefe" d="M 490.5,-0.5 C 630.833,-0.5 771.167,-0.5 911.5,-0.5C 911.5,142.167 911.5,284.833 911.5,427.5C 910.539,414.95 909.205,402.283 907.5,389.5C 906.824,388.398 906.158,387.398 905.5,386.5C 884.293,261.268 822.627,160.768 720.5,85C 676.898,54.7094 629.898,31.7094 579.5,16C 560.472,12.1277 541.472,8.12766 522.5,4C 512.52,2.83706 502.52,2.00373 492.5,1.5C 491.833,0.833333 491.167,0.166667 490.5,-0.5 Z"/></g>
<g><path style="opacity:1" fill="#d2bd7d" d="M 420.5,-0.5 C 441.833,-0.5 463.167,-0.5 484.5,-0.5C 464.191,1.32441 443.524,2.15774 422.5,2C 410.249,2.65483 398.249,4.15483 386.5,6.5C 375.6,8.23321 364.6,9.89987 353.5,11.5C 353.5,11.1667 353.5,10.8333 353.5,10.5C 359.325,8.73348 365.325,7.23348 371.5,6C 387.968,4.08978 404.301,1.92311 420.5,-0.5 Z"/></g>
<g><path style="opacity:1" fill="#faf4d7" d="M 484.5,-0.5 C 486.5,-0.5 488.5,-0.5 490.5,-0.5C 491.167,0.166667 491.833,0.833333 492.5,1.5C 490.801,1.33982 489.134,1.50649 487.5,2C 490.036,2.18618 492.369,2.68618 494.5,3.5C 470.847,2.41826 447.18,2.25159 423.5,3C 411.267,4.80478 398.934,5.97144 386.5,6.5C 398.249,4.15483 410.249,2.65483 422.5,2C 443.524,2.15774 464.191,1.32441 484.5,-0.5 Z"/></g>
<g><path style="opacity:1" fill="#d8c68c" d="M 492.5,1.5 C 502.52,2.00373 512.52,2.83706 522.5,4C 541.472,8.12766 560.472,12.1277 579.5,16C 629.898,31.7094 676.898,54.7094 720.5,85C 822.627,160.768 884.293,261.268 905.5,386.5C 905.768,388.099 905.434,389.432 904.5,390.5C 881.977,255.405 813.644,149.571 699.5,73C 636.852,33.9345 568.519,10.7678 494.5,3.5C 492.369,2.68618 490.036,2.18618 487.5,2C 489.134,1.50649 490.801,1.33982 492.5,1.5 Z"/></g>
<g><path style="opacity:1" fill="#d9c78e" d="M 353.5,10.5 C 353.5,10.8333 353.5,11.1667 353.5,11.5C 201.502,50.0023 94.0023,141.002 31,284.5C 22.8614,305.421 15.6948,326.421 9.5,347.5C 9.41693,342.009 10.2503,336.676 12,331.5C 16.9781,317.272 21.8115,302.938 26.5,288.5C 41.7608,253.298 60.0941,219.965 81.5,188.5C 97.3422,167.98 114.342,148.313 132.5,129.5C 140.337,123.161 147.671,116.328 154.5,109C 203.756,68.7054 258.422,38.3721 318.5,18C 330.213,15.6547 341.879,13.1547 353.5,10.5 Z"/></g>
<g><path style="opacity:1" fill="#d5c287" d="M 9.5,347.5 C 9.16667,350.833 8.83333,354.167 8.5,357.5C 5.98327,366.91 4.14994,376.577 3,386.5C 2.61742,385.944 2.11742,385.611 1.5,385.5C 2.762,375.501 4.262,365.501 6,355.5C 7.0934,352.691 8.26007,350.024 9.5,347.5 Z"/></g>
<g><path style="opacity:1" fill="#f7f0d4" d="M 8.5,357.5 C 5.7305,372.37 3.56383,387.37 2,402.5C 1.72158,403.416 1.22158,404.082 0.5,404.5C 1.61862,399.347 1.61862,394.347 0.5,389.5C 0.432553,388.041 0.765886,386.708 1.5,385.5C 2.11742,385.611 2.61742,385.944 3,386.5C 4.14994,376.577 5.98327,366.91 8.5,357.5 Z"/></g>
<g><path style="opacity:1" fill="#d8c588" d="M -0.5,389.5 C -0.166667,389.5 0.166667,389.5 0.5,389.5C 1.61862,394.347 1.61862,399.347 0.5,404.5C 0.67158,405.492 0.338246,406.158 -0.5,406.5C -0.5,400.833 -0.5,395.167 -0.5,389.5 Z"/></g>
<g><path style="opacity:1" fill="#f8f3d7" d="M 905.5,386.5 C 906.158,387.398 906.824,388.398 907.5,389.5C 909.205,402.283 910.539,414.95 911.5,427.5C 911.5,428.833 911.5,430.167 911.5,431.5C 910.732,430.737 910.232,429.737 910,428.5C 909.745,416.029 908.412,403.696 906,391.5C 905.833,393.667 905.667,395.833 905.5,398C 910.35,433.547 910.683,469.047 906.5,504.5C 906.438,487.932 907.105,471.432 908.5,455C 907.26,433.493 905.926,411.993 904.5,390.5C 905.434,389.432 905.768,388.099 905.5,386.5 Z"/></g>
<g><path style="opacity:1" fill="#fefefe" d="M 911.5,488.5 C 911.5,630.833 911.5,773.167 911.5,915.5C 768.833,915.5 626.167,915.5 483.5,915.5C 513.491,913.283 542.491,908.783 570.5,902C 571.571,901.148 572.571,900.315 573.5,899.5C 597.814,892.508 621.481,883.842 644.5,873.5C 650.142,872.939 654.809,870.606 658.5,866.5C 768.694,808.79 845.027,721.456 887.5,604.5C 891.89,589.655 895.89,574.655 899.5,559.5C 900.79,558.942 901.623,557.942 902,556.5C 903.725,546.08 905.725,535.747 908,525.5C 909.599,513.079 910.765,500.746 911.5,488.5 Z"/></g>
<g><path style="opacity:1" fill="#fdf9e1" d="M 911.5,476.5 C 911.5,480.5 911.5,484.5 911.5,488.5C 910.765,500.746 909.599,513.079 908,525.5C 905.725,535.747 903.725,546.08 902,556.5C 901.623,557.942 900.79,558.942 899.5,559.5C 905.542,532.043 909.542,504.376 911.5,476.5 Z"/></g>
<g><path style="opacity:1" fill="#fefefe" d="M -0.5,526.5 C 24.624,666.214 97.2907,774.047 217.5,850C 220.778,851.809 224.111,853.309 227.5,854.5C 236.621,860.272 245.955,865.772 255.5,871C 294.403,888.9 335.07,901.567 377.5,909C 396.912,911.743 416.246,913.91 435.5,915.5C 290.167,915.5 144.833,915.5 -0.5,915.5C -0.5,785.833 -0.5,656.167 -0.5,526.5 Z"/></g>
<g><path style="opacity:1" fill="#d8c68d" d="M -0.5,507.5 C 16.672,638.647 78.0053,744.48 183.5,825C 198.069,835.108 212.736,844.941 227.5,854.5C 224.111,853.309 220.778,851.809 217.5,850C 97.2907,774.047 24.624,666.214 -0.5,526.5C -0.5,520.167 -0.5,513.833 -0.5,507.5 Z"/></g>
<g><path style="opacity:1" fill="#d6c388" d="M 911.5,431.5 C 911.5,446.5 911.5,461.5 911.5,476.5C 909.542,504.376 905.542,532.043 899.5,559.5C 895.89,574.655 891.89,589.655 887.5,604.5C 845.027,721.456 768.694,808.79 658.5,866.5C 656.689,867.822 654.689,868.322 652.5,868C 660.865,862.817 669.532,858.15 678.5,854C 774.85,797.43 842.683,716.93 882,612.5C 884.579,603.43 887.579,594.43 891,585.5C 893.471,575.093 896.137,564.76 899,554.5C 902.641,538.043 905.141,521.377 906.5,504.5C 910.683,469.047 910.35,433.547 905.5,398C 905.667,395.833 905.833,393.667 906,391.5C 908.412,403.696 909.745,416.029 910,428.5C 910.232,429.737 910.732,430.737 911.5,431.5 Z"/></g>
<g><path style="opacity:1" fill="#f5f7f1" d="M 494.5,3.5 C 568.519,10.7678 636.852,33.9345 699.5,73C 813.644,149.571 881.977,255.405 904.5,390.5C 905.926,411.993 907.26,433.493 908.5,455C 907.105,471.432 906.438,487.932 906.5,504.5C 905.141,521.377 902.641,538.043 899,554.5C 896.137,564.76 893.471,575.093 891,585.5C 887.579,594.43 884.579,603.43 882,612.5C 842.683,716.93 774.85,797.43 678.5,854C 669.532,858.15 660.865,862.817 652.5,868C 654.689,868.322 656.689,867.822 658.5,866.5C 654.809,870.606 650.142,872.939 644.5,873.5C 646.769,872.024 649.102,870.524 651.5,869C 648.643,869.774 645.643,870.441 642.5,871C 637.44,873.519 632.44,876.186 627.5,879C 607.254,885.247 587.254,891.914 567.5,899C 554.291,902.033 540.957,904.699 527.5,907C 518.578,908.692 509.578,909.859 500.5,910.5C 467.821,911.34 435.155,911.006 402.5,909.5C 389.75,908.694 377.083,907.194 364.5,905C 353.465,902.439 342.465,899.773 331.5,897C 329.178,895.076 326.511,893.743 323.5,893C 319.442,892.66 315.442,891.993 311.5,891C 299.116,886.486 286.782,881.82 274.5,877C 258.805,869.485 243.138,861.985 227.5,854.5C 212.736,844.941 198.069,835.108 183.5,825C 78.0053,744.48 16.672,638.647 -0.5,507.5C -0.5,473.833 -0.5,440.167 -0.5,406.5C 0.338246,406.158 0.67158,405.492 0.5,404.5C 1.22158,404.082 1.72158,403.416 2,402.5C 3.56383,387.37 5.7305,372.37 8.5,357.5C 8.83333,354.167 9.16667,350.833 9.5,347.5C 15.6948,326.421 22.8614,305.421 31,284.5C 94.0023,141.002 201.502,50.0023 353.5,11.5C 364.6,9.89987 375.6,8.23321 386.5,6.5C 398.934,5.97144 411.267,4.80478 423.5,3C 447.18,2.25159 470.847,2.41826 494.5,3.5 Z"/></g>
<g><path style="opacity:1" fill="#b8c6be" d="M 22.5,585.5 C 24.9803,592.274 27.3137,599.274 29.5,606.5C 27.3523,603.597 25.8523,600.264 25,596.5C 23.984,595.366 23.3173,595.699 23,597.5C 22.8333,597 22.6667,596.5 22.5,596C 23.509,592.523 23.509,589.023 22.5,585.5 Z"/></g>
<g><path style="opacity:1" fill="#85998d" d="M 875.5,303.5 C 879.325,310.637 881.992,318.303 883.5,326.5C 880.463,319.058 877.796,311.391 875.5,303.5 Z"/></g>
<g><path style="opacity:1" fill="#879d93" d="M 31.5,302.5 C 31.2451,304.967 30.2451,306.967 28.5,308.5C 28.7549,306.033 29.7549,304.033 31.5,302.5 Z"/></g>
<g><path style="opacity:1" fill="#214635" d="M 875.5,303.5 C 877.796,311.391 880.463,319.058 883.5,326.5C 918.003,447.501 905.836,563.501 847,674.5C 781.206,788.672 684.373,862.172 556.5,895C 400.897,927.317 264.231,890.984 146.5,786C 92.809,735.796 53.809,675.962 29.5,606.5C 27.3137,599.274 24.9803,592.274 22.5,585.5C -4.42629,492.518 -2.42629,400.184 28.5,308.5C 30.2451,306.967 31.2451,304.967 31.5,302.5C 70.8743,197.953 139.208,118.12 236.5,63C 255.419,52.6978 274.753,43.8645 294.5,36.5C 299.517,35.6072 304.183,33.9405 308.5,31.5C 402.445,0.487627 496.778,-0.345706 591.5,29C 714.821,71.643 804.988,151.81 862,269.5C 866.804,280.718 871.304,292.051 875.5,303.5 Z"/></g>
<g><path style="opacity:1" fill="#8b9d96" d="M 889.5,516.5 C 889.083,520.835 888.583,525.168 888,529.5C 887.722,530.416 887.222,531.082 886.5,531.5C 886.862,526.248 887.862,521.248 889.5,516.5 Z"/></g>
<g><path style="opacity:1" fill="#91a299" d="M 891.5,417.5 C 893.05,429.96 893.716,442.627 893.5,455.5C 893.5,465.006 893.166,474.339 892.5,483.5C 892.583,461.492 892.25,439.492 891.5,417.5 Z"/></g>
<g><path style="opacity:1" fill="#b8c6bf" d="M 15.5,412.5 C 14.1928,441.499 14.1928,470.499 15.5,499.5C 14.6829,497.031 14.1829,494.365 14,491.5C 13.8333,481 13.6667,470.5 13.5,460C 13.3349,443.973 14.0015,428.139 15.5,412.5 Z"/></g>
<g><path style="opacity:1" fill="#8fa298" d="M 888.5,392.5 C 890.364,399.578 891.364,406.912 891.5,414.5C 889.696,407.411 888.696,400.077 888.5,392.5 Z"/></g>
<g><path style="opacity:1" fill="#99aca5" d="M 18.5,389.5 C 18.4527,396.766 17.4527,403.766 15.5,410.5C 15.6784,403.251 16.6784,396.251 18.5,389.5 Z"/></g>
<g><path style="opacity:1" fill="#778f84" d="M 21.5,372.5 C 20.9508,378.374 19.9508,384.041 18.5,389.5C 18.3325,383.497 19.3325,377.83 21.5,372.5 Z"/></g>
<g><path style="opacity:1" fill="#637c71" d="M 308.5,31.5 C 304.183,33.9405 299.517,35.6072 294.5,36.5C 298.799,34.0649 303.466,32.3982 308.5,31.5 Z"/></g>
<g><path style="opacity:1" fill="#a7b9af" d="M 371.5,24.5 C 371.389,25.1174 371.056,25.6174 370.5,26C 367.629,26.1177 364.962,26.7844 362.5,28C 359.518,28.498 356.518,28.6646 353.5,28.5C 359.172,26.325 365.172,24.9917 371.5,24.5 Z"/></g>
<g><path style="opacity:1" fill="#99aba3" d="M 499.5,19.5 C 509.494,20.629 519.494,21.7957 529.5,23C 530.416,23.2784 531.082,23.7784 531.5,24.5C 521.866,23.1517 512.199,21.985 502.5,21C 501.263,20.7679 500.263,20.2679 499.5,19.5 Z"/></g>
<g><path style="opacity:1" fill="#a2b3ab" d="M 406.5,19.5 C 396.389,21.7269 386.055,23.3936 375.5,24.5C 375.918,23.7784 376.584,23.2784 377.5,23C 387.174,21.7216 396.841,20.5549 406.5,19.5 Z"/></g>
<g><path style="opacity:1" fill="#fcfdfc" d="M 470.5,17.5 C 480.184,18.0108 489.851,18.6774 499.5,19.5C 500.263,20.2679 501.263,20.7679 502.5,21C 512.199,21.985 521.866,23.1517 531.5,24.5C 650.872,47.9026 745.705,108.903 816,207.5C 854.248,263.762 878.415,325.428 888.5,392.5C 888.696,400.077 889.696,407.411 891.5,414.5C 891.5,415.5 891.5,416.5 891.5,417.5C 892.25,439.492 892.583,461.492 892.5,483.5C 892.062,494.563 891.062,505.563 889.5,516.5C 887.862,521.248 886.862,526.248 886.5,531.5C 862.457,658.964 796.457,758.131 688.5,829C 627.594,867.024 561.261,889.191 489.5,895.5C 460.824,895.681 432.158,895.347 403.5,894.5C 403.167,894.5 402.833,894.5 402.5,894.5C 392.394,892.274 382.061,890.607 371.5,889.5C 260.786,867.043 170.953,811.376 102,722.5C 52.6293,656.379 23.7959,582.046 15.5,499.5C 14.1928,470.499 14.1928,441.499 15.5,412.5C 15.5,411.833 15.5,411.167 15.5,410.5C 17.4527,403.766 18.4527,396.766 18.5,389.5C 19.9508,384.041 20.9508,378.374 21.5,372.5C 49.79,241.066 121.79,141.233 237.5,73C 274.276,52.9135 312.942,38.0802 353.5,28.5C 356.518,28.6646 359.518,28.498 362.5,28C 364.962,26.7844 367.629,26.1177 370.5,26C 371.056,25.6174 371.389,25.1174 371.5,24.5C 372.833,24.5 374.167,24.5 375.5,24.5C 386.055,23.3936 396.389,21.7269 406.5,19.5C 407.167,19.5 407.833,19.5 408.5,19.5C 429.136,18.0152 449.802,17.3485 470.5,17.5 Z"/></g>
<g><path style="opacity:1" fill="#214433" d="M 471.5,798.5 C 469.914,805.331 469.581,812.331 470.5,819.5C 471.739,819.058 472.739,818.391 473.5,817.5C 482.057,814.437 490.39,814.937 498.5,819C 503.392,822.616 505.725,827.449 505.5,833.5C 503.928,847.586 496.261,856.753 482.5,861C 478.5,861.667 474.5,861.667 470.5,861C 465.253,859.794 463.586,856.794 465.5,852C 469.113,851.792 472.446,852.792 475.5,855C 492.453,856.99 499.287,849.49 496,832.5C 494.653,828.656 492.153,825.989 488.5,824.5C 487.942,823.21 486.942,822.377 485.5,822C 479.353,821.101 473.353,821.601 467.5,823.5C 466.508,816.018 466.175,808.352 466.5,800.5C 466.5,797.167 466.5,793.833 466.5,790.5C 475.329,789.859 484.163,789.193 493,788.5C 500.293,787.858 501.459,790.358 496.5,796C 487.979,796.46 479.646,797.293 471.5,798.5 Z"/></g>
<g><path style="opacity:1" fill="#5f796f" d="M 466.5,800.5 C 466.175,808.352 466.508,816.018 467.5,823.5C 467.5,823.833 467.5,824.167 467.5,824.5C 466.176,820.893 465.509,816.893 465.5,812.5C 465.501,808.319 465.834,804.319 466.5,800.5 Z"/></g>
<g><path style="opacity:1" fill="#b2c6bd" d="M 471.5,798.5 C 470.877,805.255 471.544,811.588 473.5,817.5C 472.739,818.391 471.739,819.058 470.5,819.5C 469.581,812.331 469.914,805.331 471.5,798.5 Z"/></g>
<g><path style="opacity:1" fill="#264838" d="M 377.5,782.5 C 379.167,782.5 380.833,782.5 382.5,782.5C 378.037,802.816 373.704,823.149 369.5,843.5C 369.925,848.92 372.925,851.587 378.5,851.5C 378.5,852.5 378.5,853.5 378.5,854.5C 368.212,852.242 357.879,850.242 347.5,848.5C 347.5,847.5 347.5,846.5 347.5,845.5C 350.85,845.665 354.183,845.498 357.5,845C 359.235,842.808 360.402,840.308 361,837.5C 363.953,822.445 367.12,807.445 370.5,792.5C 370.449,790.9 370.116,789.4 369.5,788C 366.459,787.424 363.792,786.258 361.5,784.5C 366.985,783.833 372.319,783.167 377.5,782.5 Z"/></g>
<g><path style="opacity:1" fill="#b1c1ba" d="M 550.5,778.5 C 542.077,780.811 533.41,782.477 524.5,783.5C 526.158,782.819 527.825,781.985 529.5,781C 536.557,780.556 543.557,779.722 550.5,778.5 Z"/></g>
<g><path style="opacity:1" fill="#566e60" d="M 658.5,770.5 C 667.955,773.664 677.622,774.331 687.5,772.5C 688.622,773.156 689.955,773.489 691.5,773.5C 694.887,773.036 698.22,772.369 701.5,771.5C 696.631,774.213 691.298,775.546 685.5,775.5C 679.013,774.672 672.346,774.172 665.5,774C 662.719,773.478 660.385,772.311 658.5,770.5 Z"/></g>
<g><path style="opacity:1" fill="#fdf8dc" d="M 416.5,754.5 C 419.833,754.5 423.167,754.5 426.5,754.5C 434.445,756.006 442.612,756.673 451,756.5C 456.677,756.499 462.177,756.166 467.5,755.5C 470.167,755.5 472.833,755.5 475.5,755.5C 474.391,756.29 473.058,756.79 471.5,757C 455.833,757.667 440.167,757.667 424.5,757C 421.543,756.721 418.877,755.887 416.5,754.5 Z"/></g>
<g><path style="opacity:1" fill="#829c8f" d="M 236.5,755.5 C 237.043,755.56 237.376,755.893 237.5,756.5C 234.914,757.48 232.247,757.813 229.5,757.5C 231.833,756.833 234.167,756.167 236.5,755.5 Z"/></g>
<g><path style="opacity:1" fill="#ecd891" d="M 426.5,754.5 C 440.15,755.312 453.817,755.645 467.5,755.5C 462.177,756.166 456.677,756.499 451,756.5C 442.612,756.673 434.445,756.006 426.5,754.5 Z"/></g>
<g><path style="opacity:1" fill="#f5e6b1" d="M 516.5,749.5 C 512.75,751.094 508.75,752.261 504.5,753C 495.835,753.945 487.169,754.778 478.5,755.5C 491.011,753.349 503.678,751.349 516.5,749.5 Z"/></g>
<g><path style="opacity:1" fill="#faf2d0" d="M 570.5,732.5 C 570.423,733.75 569.756,734.583 568.5,735C 562.289,737.349 555.956,739.182 549.5,740.5C 556.469,737.842 563.469,735.175 570.5,732.5 Z"/></g>
<g><path style="opacity:1" fill="#d1ab42" d="M 279.5,693.5 C 285.842,693.334 292.175,693.5 298.5,694C 300.886,695.193 303.22,696.36 305.5,697.5C 321.903,708.534 339.57,717.201 358.5,723.5C 372.591,728.925 387.258,732.591 402.5,734.5C 405.544,736.011 408.878,736.678 412.5,736.5C 413.263,737.268 414.263,737.768 415.5,738C 424.804,739.067 434.138,739.567 443.5,739.5C 466.217,741.568 488.884,740.235 511.5,735.5C 512.894,735.621 514.228,735.954 515.5,736.5C 518.999,734.058 522.666,732.058 526.5,730.5C 527.492,730.672 528.158,730.338 528.5,729.5C 535.898,726.428 543.564,724.095 551.5,722.5C 556.178,721.108 560.844,719.608 565.5,718C 568.672,716.303 571.672,714.47 574.5,712.5C 585.075,706.501 595.742,700.501 606.5,694.5C 615.45,693.438 624.45,693.604 633.5,695C 632.29,696.039 631.29,697.206 630.5,698.5C 619.326,705.92 607.993,713.087 596.5,720C 587.651,723.925 578.984,728.092 570.5,732.5C 563.469,735.175 556.469,737.842 549.5,740.5C 538.452,743.677 527.452,746.677 516.5,749.5C 503.678,751.349 491.011,753.349 478.5,755.5C 477.5,755.5 476.5,755.5 475.5,755.5C 472.833,755.5 470.167,755.5 467.5,755.5C 453.817,755.645 440.15,755.312 426.5,754.5C 423.167,754.5 419.833,754.5 416.5,754.5C 363.164,747.576 315.33,727.909 273,695.5C 272.833,695.167 272.667,694.833 272.5,694.5C 274.743,693.526 277.076,693.192 279.5,693.5 Z"/></g>
<g><path style="opacity:1" fill="#fefbdc" d="M 428.5,737.5 C 446.833,737.5 465.167,737.5 483.5,737.5C 470.708,739.198 457.708,739.865 444.5,739.5C 439.167,738.833 433.833,738.167 428.5,737.5 Z"/></g>
<g><path style="opacity:1" fill="#f4e4ad" d="M 412.5,736.5 C 417.797,737.275 423.13,737.608 428.5,737.5C 433.833,738.167 439.167,738.833 444.5,739.5C 444.167,739.5 443.833,739.5 443.5,739.5C 434.138,739.567 424.804,739.067 415.5,738C 414.263,737.768 413.263,737.268 412.5,736.5 Z"/></g>
<g><path style="opacity:1" fill="#ceaf54" d="M 526.5,730.5 C 522.666,732.058 518.999,734.058 515.5,736.5C 514.228,735.954 512.894,735.621 511.5,735.5C 488.884,740.235 466.217,741.568 443.5,739.5C 443.833,739.5 444.167,739.5 444.5,739.5C 457.708,739.865 470.708,739.198 483.5,737.5C 489.404,737.679 495.071,737.012 500.5,735.5C 509.055,733.655 517.721,731.988 526.5,730.5 Z"/></g>
<g><path style="opacity:1" fill="#fbf3d2" d="M 528.5,729.5 C 528.158,730.338 527.492,730.672 526.5,730.5C 517.721,731.988 509.055,733.655 500.5,735.5C 506.335,733.951 512.335,732.284 518.5,730.5C 521.768,729.513 525.102,729.18 528.5,729.5 Z"/></g>
<g><path style="opacity:1" fill="#fcf5da" d="M 358.5,723.5 C 364.585,723.922 370.419,725.255 376,727.5C 378.241,727.32 378.741,726.487 377.5,725C 379.134,724.506 380.801,724.34 382.5,724.5C 382.703,726.39 382.037,727.89 380.5,729C 386.058,730.586 391.725,731.586 397.5,732C 399.175,732.985 400.842,733.819 402.5,734.5C 387.258,732.591 372.591,728.925 358.5,723.5 Z"/></g>
<g><path style="opacity:1" fill="#dfc77c" d="M 574.5,712.5 C 571.672,714.47 568.672,716.303 565.5,718C 560.844,719.608 556.178,721.108 551.5,722.5C 558.968,718.922 566.635,715.588 574.5,712.5 Z"/></g>
<g><path style="opacity:1" fill="#f5f8f6" d="M 174.5,708.5 C 180.526,710.012 186.026,712.678 191,716.5C 191.833,720.836 190,722.836 185.5,722.5C 179.804,722.553 174.138,722.22 168.5,721.5C 165.2,719.358 161.533,718.025 157.5,717.5C 153.665,715.75 149.999,713.75 146.5,711.5C 147.589,709.883 149.256,709.05 151.5,709C 159.159,708.5 166.826,708.334 174.5,708.5 Z"/></g>
<g><path style="opacity:1" fill="#516b5d" d="M 148.5,706.5 C 147.391,707.29 146.058,707.79 144.5,708C 145.5,708.167 146.5,708.333 147.5,708.5C 156.654,707.237 165.654,707.237 174.5,708.5C 166.826,708.334 159.159,708.5 151.5,709C 149.256,709.05 147.589,709.883 146.5,711.5C 144.007,711.131 143.34,711.797 144.5,713.5C 141.455,712.455 139.455,710.455 138.5,707.5C 141.833,707.167 145.167,706.833 148.5,706.5 Z"/></g>
<g><path style="opacity:1" fill="#2c4a3a" d="M 701.5,771.5 C 698.22,772.369 694.887,773.036 691.5,773.5C 689.955,773.489 688.622,773.156 687.5,772.5C 692.279,771.461 696.946,769.795 701.5,767.5C 700.995,766.081 699.995,765.415 698.5,765.5C 694.58,763.172 690.246,761.839 685.5,761.5C 678.202,760.441 670.869,760.274 663.5,761C 660.751,762.123 658.251,763.623 656,765.5C 655.253,767.928 656.086,769.594 658.5,770.5C 660.385,772.311 662.719,773.478 665.5,774C 672.346,774.172 679.013,774.672 685.5,775.5C 676.131,778.416 666.797,777.916 657.5,774C 655.615,771.778 653.449,769.944 651,768.5C 643.933,772.952 636.766,777.286 629.5,781.5C 627.299,790.042 623.132,791.375 617,785.5C 616.218,782.743 616.718,780.243 618.5,778C 621.5,777.667 624.5,777.333 627.5,777C 634.215,773.558 640.715,769.725 647,765.5C 645.347,761.794 644.514,757.794 644.5,753.5C 646.744,737.513 653.411,723.679 664.5,712C 665.448,711.517 666.448,711.351 667.5,711.5C 668.42,720.151 668.587,728.817 668,737.5C 667.313,743.126 665.813,748.459 663.5,753.5C 663.833,753.833 664.167,754.167 664.5,754.5C 679.066,743.773 692.899,732.106 706,719.5C 698.621,699.566 701.121,680.733 713.5,663C 714.483,662.409 715.15,662.743 715.5,664C 721.025,677.055 722.858,690.555 721,704.5C 733.835,690.837 745.335,676.171 755.5,660.5C 749.334,653.983 746.334,646.149 746.5,637C 747.282,625.493 749.615,614.326 753.5,603.5C 754.822,603.33 755.989,603.663 757,604.5C 762.821,616.135 766.321,628.468 767.5,641.5C 773.781,631.272 779.281,620.606 784,609.5C 785.814,608.24 787.647,608.24 789.5,609.5C 783.706,621.753 777.373,633.753 770.5,645.5C 770.833,645.833 771.167,646.167 771.5,646.5C 775.899,644.132 780.565,642.632 785.5,642C 794.167,641.333 802.833,641.333 811.5,642C 812.308,642.308 812.975,642.808 813.5,643.5C 801.829,655.752 787.662,663.085 771,665.5C 766.753,665.736 762.92,664.902 759.5,663C 749.309,678.196 737.976,692.529 725.5,706C 739.17,703.392 752.67,704.226 766,708.5C 767.826,709.01 767.993,709.844 766.5,711C 757.265,716.63 747.598,721.297 737.5,725C 731.207,726.275 724.874,726.608 718.5,726C 716.156,725.163 714.156,723.829 712.5,722C 711.5,721.333 710.5,721.333 709.5,722C 697.531,734.476 684.531,745.643 670.5,755.5C 683.425,757.282 695.759,760.949 707.5,766.5C 708.711,767.274 708.711,768.107 707.5,769C 705.593,770.122 703.593,770.955 701.5,771.5 Z"/></g>
<g><path style="opacity:1" fill="#acbbb4" d="M 685.5,761.5 C 690.246,761.839 694.58,763.172 698.5,765.5C 695.135,765.046 691.802,764.38 688.5,763.5C 686.97,763.36 685.97,762.693 685.5,761.5 Z"/></g>
<g><path style="opacity:1" fill="#f5f8f6" d="M 685.5,761.5 C 685.97,762.693 686.97,763.36 688.5,763.5C 691.802,764.38 695.135,765.046 698.5,765.5C 699.995,765.415 700.995,766.081 701.5,767.5C 696.946,769.795 692.279,771.461 687.5,772.5C 677.622,774.331 667.955,773.664 658.5,770.5C 656.086,769.594 655.253,767.928 656,765.5C 658.251,763.623 660.751,762.123 663.5,761C 670.869,760.274 678.202,760.441 685.5,761.5 Z"/></g>
<g><path style="opacity:1" fill="#859489" d="M 649.5,743.5 C 648.725,748.797 648.392,754.13 648.5,759.5C 647.837,757.527 647.504,755.361 647.5,753C 647.328,749.523 647.994,746.356 649.5,743.5 Z"/></g>
<g><path style="opacity:1" fill="#a3b8af" d="M 663.5,718.5 C 663.56,717.957 663.893,717.624 664.5,717.5C 665.819,724.99 665.819,732.323 664.5,739.5C 664.825,732.313 664.491,725.313 663.5,718.5 Z"/></g>
<g><path style="opacity:1" fill="#f5f8f6" d="M 663.5,718.5 C 664.491,725.313 664.825,732.313 664.5,739.5C 663.274,746.346 660.774,752.68 657,758.5C 655.561,760.448 653.728,761.781 651.5,762.5C 649.825,762.132 648.825,761.132 648.5,759.5C 648.392,754.13 648.725,748.797 649.5,743.5C 652.486,734.192 657.153,725.858 663.5,718.5 Z"/></g>
<g><path style="opacity:1" fill="#f4f7f5" d="M 752.5,708.5 C 755.203,708.952 757.87,709.619 760.5,710.5C 747.611,720.137 733.278,723.971 717.5,722C 714.677,718.456 715.343,715.456 719.5,713C 721.407,711.878 723.407,711.045 725.5,710.5C 734.383,708.738 743.383,708.072 752.5,708.5 Z"/></g>
<g><path style="opacity:1" fill="#85978d" d="M 752.5,708.5 C 743.383,708.072 734.383,708.738 725.5,710.5C 727.277,709.4 729.277,708.566 731.5,708C 738.679,707.179 745.679,707.345 752.5,708.5 Z"/></g>
<g><path style="opacity:1" fill="#c0ccc4" d="M 706.5,685.5 C 705.268,694.505 705.268,703.505 706.5,712.5C 705.732,711.737 705.232,710.737 705,709.5C 704.833,706.167 704.667,702.833 704.5,699.5C 704.3,694.563 704.967,689.896 706.5,685.5 Z"/></g>
<g><path style="opacity:1" fill="#eddaa5" d="M 630.5,698.5 C 631.29,697.206 632.29,696.039 633.5,695C 624.45,693.604 615.45,693.438 606.5,694.5C 608.915,693.186 611.748,692.519 615,692.5C 621.495,692.985 627.995,693.318 634.5,693.5C 634.631,696.367 633.297,698.033 630.5,698.5 Z"/></g>
<g><path style="opacity:1" fill="#f7efce" d="M 305.5,697.5 C 303.22,696.36 300.886,695.193 298.5,694C 292.175,693.5 285.842,693.334 279.5,693.5C 286.327,692.346 293.327,691.846 300.5,692C 302.418,693.657 304.085,695.49 305.5,697.5 Z"/></g>
<g><path style="opacity:1" fill="#233e2e" d="M 413.5,671.5 C 426.723,672.311 439.723,674.478 452.5,678C 448.83,678.279 445.163,678.112 441.5,677.5C 417.223,675.465 392.89,674.965 368.5,676C 332.251,679.801 295.918,682.301 259.5,683.5C 265.167,682.833 270.833,682.167 276.5,681.5C 307.915,679.22 339.248,676.22 370.5,672.5C 384.82,671.73 399.153,671.396 413.5,671.5 Z"/></g>
<g><path style="opacity:1" fill="#3d5045" d="M 297.5,626.5 C 286.477,645.034 274.811,663.201 262.5,681C 267.155,681.499 271.821,681.666 276.5,681.5C 270.833,682.167 265.167,682.833 259.5,683.5C 258.475,683.103 258.308,682.437 259,681.5C 271.992,664.188 283.992,646.188 295,627.5C 295.671,626.748 296.504,626.414 297.5,626.5 Z"/></g>
<g><path style="opacity:1" fill="#f1f5f3" d="M 706.5,712.5 C 705.268,703.505 705.268,694.505 706.5,685.5C 708.296,680.014 710.296,674.681 712.5,669.5C 713.5,669.5 714.5,669.5 715.5,669.5C 715.037,673.828 715.87,677.828 718,681.5C 719.017,690.647 718.35,699.647 716,708.5C 714.321,711.513 711.987,713.846 709,715.5C 707.69,714.87 706.856,713.87 706.5,712.5 Z"/></g>
<g><path style="opacity:1" fill="#23402f" d="M 630.5,681.5 C 632.81,682.164 635.31,682.497 638,682.5C 641.105,682.389 643.938,681.722 646.5,680.5C 647.267,681.172 647.934,682.005 648.5,683C 643.167,683.167 637.833,683.333 632.5,683.5C 599.139,681.427 565.805,678.927 532.5,676C 509.769,674.963 487.102,675.463 464.5,677.5C 461.159,678.005 457.826,678.172 454.5,678C 471.427,672.929 488.76,670.763 506.5,671.5C 538.959,672.799 571.293,675.633 603.5,680C 612.482,680.88 621.482,681.38 630.5,681.5 Z"/></g>
<g><path style="opacity:1" fill="#dee8e2" d="M 297.5,626.5 C 298.708,627.234 300.041,627.567 301.5,627.5C 292.026,644.443 282.026,661.109 271.5,677.5C 280.488,678.288 289.488,678.121 298.5,677C 328.436,672.973 358.436,669.807 388.5,667.5C 397.852,667.434 407.185,667.768 416.5,668.5C 428.039,669.757 439.373,672.09 450.5,675.5C 451.713,675.253 452.38,674.586 452.5,673.5C 453.167,673.5 453.833,673.5 454.5,673.5C 454.47,674.497 454.97,675.164 456,675.5C 468.186,671.363 480.686,668.696 493.5,667.5C 507.847,667.396 522.18,667.73 536.5,668.5C 566.364,672.929 596.364,676.263 626.5,678.5C 629.5,678.167 632.5,677.833 635.5,677.5C 624.984,661.991 615.318,645.991 606.5,629.5C 607.728,628.694 608.728,627.694 609.5,626.5C 620.523,645.034 632.189,663.201 644.5,681C 639.845,681.499 635.179,681.666 630.5,681.5C 621.482,681.38 612.482,680.88 603.5,680C 571.293,675.633 538.959,672.799 506.5,671.5C 488.76,670.763 471.427,672.929 454.5,678C 457.826,678.172 461.159,678.005 464.5,677.5C 463.531,678.309 462.698,679.309 462,680.5C 454.991,680.018 448.158,679.018 441.5,677.5C 445.163,678.112 448.83,678.279 452.5,678C 439.723,674.478 426.723,672.311 413.5,671.5C 408.177,670.834 402.677,670.501 397,670.5C 387.954,670.368 379.121,671.035 370.5,672.5C 339.248,676.22 307.915,679.22 276.5,681.5C 271.821,681.666 267.155,681.499 262.5,681C 274.811,663.201 286.477,645.034 297.5,626.5 Z"/></g>
<g><path style="opacity:1" fill="#224433" d="M 606.5,629.5 C 615.318,645.991 624.984,661.991 635.5,677.5C 632.5,677.833 629.5,678.167 626.5,678.5C 596.364,676.263 566.364,672.929 536.5,668.5C 528.22,666.984 519.72,666.318 511,666.5C 504.99,666.501 499.157,666.834 493.5,667.5C 480.686,668.696 468.186,671.363 456,675.5C 454.97,675.164 454.47,674.497 454.5,673.5C 462.459,669.698 470.793,666.698 479.5,664.5C 496.059,661.986 512.726,660.986 529.5,661.5C 540.445,662.994 551.445,664.16 562.5,665C 582.382,670.861 602.716,673.694 623.5,673.5C 618.692,663.217 613.359,653.217 607.5,643.5C 603.666,637.165 600.333,630.499 597.5,623.5C 599.167,622.167 600.833,622.167 602.5,623.5C 603.5,625.813 604.834,627.813 606.5,629.5 Z"/></g>
<g><path style="opacity:1" fill="#254735" d="M 355.5,663.5 C 361.069,663.624 366.402,662.957 371.5,661.5C 388.967,659.815 406.301,660.482 423.5,663.5C 425.515,664.924 427.848,665.59 430.5,665.5C 435.922,666.856 441.255,668.523 446.5,670.5C 448.25,671.87 450.25,672.87 452.5,673.5C 452.38,674.586 451.713,675.253 450.5,675.5C 439.373,672.09 428.039,669.757 416.5,668.5C 411.431,666.943 406.098,666.276 400.5,666.5C 396.319,666.501 392.319,666.834 388.5,667.5C 358.436,669.807 328.436,672.973 298.5,677C 289.488,678.121 280.488,678.288 271.5,677.5C 282.026,661.109 292.026,644.443 301.5,627.5C 302.601,626.152 303.601,624.652 304.5,623C 306.134,622.506 307.801,622.34 309.5,622.5C 301.257,639.619 292.257,656.453 282.5,673C 291.524,673.54 300.524,673.207 309.5,672C 324.879,669.055 340.212,666.222 355.5,663.5 Z"/></g>
<g><path style="opacity:1" fill="#97a99f" d="M 413.5,671.5 C 399.153,671.396 384.82,671.73 370.5,672.5C 379.121,671.035 387.954,670.368 397,670.5C 402.677,670.501 408.177,670.834 413.5,671.5 Z"/></g>
<g><path style="opacity:1" fill="#2a4939" d="M 229.5,757.5 C 232.247,757.813 234.914,757.48 237.5,756.5C 237.376,755.893 237.043,755.56 236.5,755.5C 222.455,745.297 209.121,734.13 196.5,722C 177.835,728.842 160.502,726.008 144.5,713.5C 143.34,711.797 144.007,711.131 146.5,711.5C 149.999,713.75 153.665,715.75 157.5,717.5C 160.8,719.642 164.467,720.975 168.5,721.5C 171.718,722.954 175.218,723.621 179,723.5C 181.361,723.496 183.527,723.163 185.5,722.5C 190,722.836 191.833,720.836 191,716.5C 186.026,712.678 180.526,710.012 174.5,708.5C 165.654,707.237 156.654,707.237 147.5,708.5C 146.5,708.333 145.5,708.167 144.5,708C 146.058,707.79 147.391,707.29 148.5,706.5C 158.279,703.883 168.113,703.883 178,706.5C 178.833,706.167 179.667,705.833 180.5,705.5C 168.356,691.54 156.856,677.207 146,662.5C 143.953,663.609 141.787,664.276 139.5,664.5C 133.712,664.688 128.045,664.022 122.5,662.5C 110.896,658.698 100.896,652.365 92.5,643.5C 106.439,640.491 120.272,641.158 134,645.5C 134.5,645.167 135,644.833 135.5,644.5C 128.429,633.025 122.429,621.025 117.5,608.5C 119.144,608.286 120.644,608.62 122,609.5C 127.322,620.305 132.822,630.971 138.5,641.5C 138.56,642.043 138.893,642.376 139.5,642.5C 141.042,637.623 141.709,632.623 141.5,627.5C 141.34,625.801 141.506,624.134 142,622.5C 144.36,616.486 146.694,610.486 149,604.5C 149.965,602.74 151.132,602.406 152.5,603.5C 159.904,619.308 161.404,635.642 157,652.5C 155.719,655.942 153.553,658.608 150.5,660.5C 161.072,675.408 172.405,689.742 184.5,703.5C 184.226,689.713 186.393,676.38 191,663.5C 191.718,662.549 192.551,662.383 193.5,663C 203.513,678.062 207.013,694.562 204,712.5C 202.334,714.853 201.001,717.186 200,719.5C 213.148,732.489 227.315,744.155 242.5,754.5C 242.833,754.167 243.167,753.833 243.5,753.5C 239.464,745.005 237.797,736.005 238.5,726.5C 238.667,722.167 238.833,717.833 239,713.5C 239.423,712.044 240.256,711.544 241.5,712C 253.663,723.161 260.33,736.994 261.5,753.5C 261.757,757.922 260.924,761.922 259,765.5C 265.502,770.375 272.502,774.375 280,777.5C 288.19,775.022 291.19,778.022 289,786.5C 286.163,788.585 283.163,788.919 280,787.5C 279.205,785.099 278.038,782.932 276.5,781C 269.169,777.337 262.169,773.17 255.5,768.5C 248.561,774.997 240.228,777.997 230.5,777.5C 220.491,776.832 210.825,774.666 201.5,771C 198.294,770.375 197.294,768.709 198.5,766C 208.31,761.131 218.644,758.298 229.5,757.5 Z"/></g>
<g><path style="opacity:1" fill="#708379" d="M 217.5,772.5 C 225.15,773.143 232.817,773.477 240.5,773.5C 237.518,774.165 234.352,774.498 231,774.5C 226.228,774.692 221.728,774.025 217.5,772.5 Z"/></g>
<g><path style="opacity:1" fill="#f2f5f3" d="M 240.5,773.5 C 232.817,773.477 225.15,773.143 217.5,772.5C 213.806,771.599 210.139,770.265 206.5,768.5C 205.614,767.675 205.281,766.675 205.5,765.5C 217.051,760.827 229.051,759.327 241.5,761C 245.782,761.472 249.115,763.472 251.5,767C 251.355,767.772 251.022,768.439 250.5,769C 247.107,770.62 243.774,772.12 240.5,773.5 Z"/></g>
<g><path style="opacity:1" fill="#b9cbc1" d="M 243.5,718.5 C 242.298,727.681 242.298,737.014 243.5,746.5C 242.71,745.391 242.21,744.058 242,742.5C 241.168,734.147 241.335,725.813 242.5,717.5C 243.107,717.624 243.44,717.957 243.5,718.5 Z"/></g>
<g><path style="opacity:1" fill="#92a89c" d="M 168.5,721.5 C 174.138,722.22 179.804,722.553 185.5,722.5C 183.527,723.163 181.361,723.496 179,723.5C 175.218,723.621 171.718,722.954 168.5,721.5 Z"/></g>
<g><path style="opacity:1" fill="#f4f7f5" d="M 243.5,718.5 C 248.526,724.552 252.526,731.218 255.5,738.5C 258.506,746.049 259.006,753.716 257,761.5C 254.279,762.661 251.946,761.994 250,759.5C 247.544,755.288 245.377,750.955 243.5,746.5C 242.298,737.014 242.298,727.681 243.5,718.5 Z"/></g>
<g><path style="opacity:1" fill="#a2b6ac" d="M 157.5,717.5 C 161.533,718.025 165.2,719.358 168.5,721.5C 164.467,720.975 160.8,719.642 157.5,717.5 Z"/></g>
<g><path style="opacity:1" fill="#aabbb2" d="M 200.5,686.5 C 201.979,690.909 202.646,695.576 202.5,700.5C 202.722,704.797 202.055,708.797 200.5,712.5C 201.613,703.843 201.613,695.176 200.5,686.5 Z"/></g>
<g><path style="opacity:1" fill="#f3f6f5" d="M 192.5,669.5 C 196.387,674.46 199.054,680.127 200.5,686.5C 201.613,695.176 201.613,703.843 200.5,712.5C 199.622,714.873 197.955,715.706 195.5,715C 192.467,711.982 190.301,708.482 189,704.5C 188.177,696.323 188.344,688.323 189.5,680.5C 191.074,677.093 192.074,673.427 192.5,669.5 Z"/></g>
<g><path style="opacity:1" fill="#90a79c" d="M 192.5,669.5 C 192.074,673.427 191.074,677.093 189.5,680.5C 189.517,676.466 190.517,672.799 192.5,669.5 Z"/></g>
<g><path style="opacity:1" fill="#577166" d="M 388.5,667.5 C 392.319,666.834 396.319,666.501 400.5,666.5C 406.098,666.276 411.431,666.943 416.5,668.5C 407.185,667.768 397.852,667.434 388.5,667.5 Z"/></g>
<g><path style="opacity:1" fill="#677f73" d="M 122.5,662.5 C 128.045,664.022 133.712,664.688 139.5,664.5C 133.601,666.114 127.935,665.448 122.5,662.5 Z"/></g>
<g><path style="opacity:1" fill="#404e46" d="M 609.5,626.5 C 611.533,628.163 613.366,630.163 615,632.5C 624.936,648.923 635.436,664.923 646.5,680.5C 643.938,681.722 641.105,682.389 638,682.5C 635.31,682.497 632.81,682.164 630.5,681.5C 635.179,681.666 639.845,681.499 644.5,681C 632.189,663.201 620.523,645.034 609.5,626.5 Z"/></g>
<g><path style="opacity:1" fill="#ecf1ee" d="M 607.5,643.5 C 613.359,653.217 618.692,663.217 623.5,673.5C 602.716,673.694 582.382,670.861 562.5,665C 551.445,664.16 540.445,662.994 529.5,661.5C 519.008,660.341 508.341,660.175 497.5,661C 491.177,661.217 485.177,662.383 479.5,664.5C 470.793,666.698 462.459,669.698 454.5,673.5C 453.833,673.5 453.167,673.5 452.5,673.5C 450.25,672.87 448.25,671.87 446.5,670.5C 448.415,670.784 450.081,670.451 451.5,669.5C 452.167,669.5 452.833,669.5 453.5,669.5C 454.492,669.672 455.158,669.338 455.5,668.5C 463.843,661.173 473.509,656.507 484.5,654.5C 500.5,653.167 516.5,653.167 532.5,654.5C 551.714,657.22 570.714,661.053 589.5,666C 597.459,667.164 605.459,667.664 613.5,667.5C 611.052,660.603 608.052,653.936 604.5,647.5C 605.496,647.414 606.329,647.748 607,648.5C 607.494,646.866 607.66,645.199 607.5,643.5 Z"/></g>
<g><path style="opacity:1" fill="#536f63" d="M 493.5,667.5 C 499.157,666.834 504.99,666.501 511,666.5C 519.72,666.318 528.22,666.984 536.5,668.5C 522.18,667.73 507.847,667.396 493.5,667.5 Z"/></g>
<g><path style="opacity:1" fill="#f1f5f3" d="M 790.5,643.5 C 796.29,643.096 801.956,643.596 807.5,645C 795.38,656.482 781.047,661.816 764.5,661C 762.18,659.512 762.013,657.679 764,655.5C 771.507,648.326 780.34,644.326 790.5,643.5 Z"/></g>
<g><path style="opacity:1" fill="#f0f4f1" d="M 99.5,643.5 C 108.911,643.474 118.245,644.308 127.5,646C 134.589,648.03 139.922,652.197 143.5,658.5C 143.182,659.647 142.516,660.481 141.5,661C 125.924,661.893 112.258,657.06 100.5,646.5C 99.6143,645.675 99.281,644.675 99.5,643.5 Z"/></g>
<g><path style="opacity:1" fill="#99b1a0" d="M 454.5,619.5 C 454.17,636.009 454.504,652.342 455.5,668.5C 455.158,669.338 454.492,669.672 453.5,669.5C 453.17,652.658 453.503,635.992 454.5,619.5 Z"/></g>
<g><path style="opacity:1" fill="#6b867b" d="M 141.5,627.5 C 141.709,632.623 141.042,637.623 139.5,642.5C 138.893,642.376 138.56,642.043 138.5,641.5C 139.108,636.757 140.108,632.091 141.5,627.5 Z"/></g>
<g><path style="opacity:1" fill="#ccdecd" d="M 449.5,616.5 C 451.764,617.219 454.097,617.552 456.5,617.5C 456.167,618.5 455.5,619.167 454.5,619.5C 453.503,635.992 453.17,652.658 453.5,669.5C 452.833,669.5 452.167,669.5 451.5,669.5C 451.5,669.167 451.5,668.833 451.5,668.5C 452.662,652.339 452.828,636.005 452,619.5C 450.955,618.627 450.122,617.627 449.5,616.5 Z"/></g>
<g><path style="opacity:1" fill="#b5c5ba" d="M 154.5,619.5 C 156.46,624.685 157.46,630.185 157.5,636C 157.672,639.477 157.006,642.644 155.5,645.5C 155.711,636.8 155.377,628.133 154.5,619.5 Z"/></g>
<g><path style="opacity:1" fill="#f1f5f2" d="M 754.5,610.5 C 755.376,610.369 756.043,610.702 756.5,611.5C 763.714,624.241 765.214,637.574 761,651.5C 757.656,658.192 754.656,657.858 752,650.5C 748.281,636.894 749.114,623.56 754.5,610.5 Z"/></g>
<g><path style="opacity:1" fill="#f6f8f7" d="M 154.5,619.5 C 155.377,628.133 155.711,636.8 155.5,645.5C 155.645,650.273 153.812,653.939 150,656.5C 146.782,654.42 144.782,651.42 144,647.5C 143.333,641.833 143.333,636.167 144,630.5C 145.335,623.665 147.169,616.999 149.5,610.5C 150.675,610.281 151.675,610.614 152.5,611.5C 153.785,614.021 154.452,616.687 154.5,619.5 Z"/></g>
<g><path style="opacity:1" fill="#9db0a9" d="M 563.5,610.5 C 571.55,610.692 579.217,611.692 586.5,613.5C 579.913,612.705 573.246,612.205 566.5,612C 565.263,611.768 564.263,611.268 563.5,610.5 Z"/></g>
<g><path style="opacity:1" fill="#8fa29b" d="M 541.5,604.5 C 545.162,604.723 548.495,605.723 551.5,607.5C 547.838,607.277 544.505,606.277 541.5,604.5 Z"/></g>
<g><path style="opacity:1" fill="#8fa09a" d="M 420.5,601.5 C 423.716,601.345 426.383,602.345 428.5,604.5C 425.603,603.871 422.936,602.871 420.5,601.5 Z"/></g>
<g><path style="opacity:1" fill="#547064" d="M 410.5,599.5 C 401.448,599.193 392.448,599.693 383.5,601C 385.595,601.556 385.762,602.056 384,602.5C 381.566,601.678 379.066,601.344 376.5,601.5C 379.322,600.493 382.322,599.66 385.5,599C 394.01,598.177 402.344,598.343 410.5,599.5 Z"/></g>
<g><path style="opacity:1" fill="#1f4534" d="M 519.5,599.5 C 527.089,600.151 534.423,601.817 541.5,604.5C 544.505,606.277 547.838,607.277 551.5,607.5C 555.267,609.027 559.267,610.027 563.5,610.5C 564.263,611.268 565.263,611.768 566.5,612C 573.246,612.205 579.913,612.705 586.5,613.5C 592.515,624.865 598.515,636.198 604.5,647.5C 608.052,653.936 611.052,660.603 613.5,667.5C 605.459,667.664 597.459,667.164 589.5,666C 570.714,661.053 551.714,657.22 532.5,654.5C 524.899,652.945 517.066,652.279 509,652.5C 500.608,652.298 492.441,652.965 484.5,654.5C 473.509,656.507 463.843,661.173 455.5,668.5C 454.504,652.342 454.17,636.009 454.5,619.5C 455.5,619.167 456.167,618.5 456.5,617.5C 466.474,608.417 478.141,602.75 491.5,600.5C 500.801,599.613 510.134,599.279 519.5,599.5 Z"/></g>
<g><path style="opacity:1" fill="#5f786c" d="M 529.5,661.5 C 512.726,660.986 496.059,661.986 479.5,664.5C 485.177,662.383 491.177,661.217 497.5,661C 508.341,660.175 519.008,660.341 529.5,661.5 Z"/></g>
<g><path style="opacity:1" fill="#98aba2" d="M 532.5,654.5 C 516.5,653.167 500.5,653.167 484.5,654.5C 492.441,652.965 500.608,652.298 509,652.5C 517.066,652.279 524.899,652.945 532.5,654.5 Z"/></g>
<g><path style="opacity:1" fill="#1f4534" d="M 410.5,599.5 C 413.988,599.54 417.321,600.207 420.5,601.5C 422.936,602.871 425.603,603.871 428.5,604.5C 435.968,607.624 442.968,611.624 449.5,616.5C 450.122,617.627 450.955,618.627 452,619.5C 452.828,636.005 452.662,652.339 451.5,668.5C 440.477,659.567 427.81,654.567 413.5,653.5C 408.01,652.834 402.343,652.501 396.5,652.5C 387.617,652.342 378.95,653.009 370.5,654.5C 369.292,655.234 367.959,655.567 366.5,655.5C 360.18,655.4 354.18,656.4 348.5,658.5C 332.864,662.997 316.864,665.997 300.5,667.5C 297.833,667.167 295.167,666.833 292.5,666.5C 301.776,648.441 311.109,630.608 320.5,613C 327.868,612.687 335.201,612.02 342.5,611C 353.59,607.139 364.924,603.972 376.5,601.5C 379.066,601.344 381.566,601.678 384,602.5C 385.762,602.056 385.595,601.556 383.5,601C 392.448,599.693 401.448,599.193 410.5,599.5 Z"/></g>
<g><path style="opacity:1" fill="#7c9188" d="M 423.5,663.5 C 426.152,663.41 428.485,664.076 430.5,665.5C 427.848,665.59 425.515,664.924 423.5,663.5 Z"/></g>
<g><path style="opacity:1" fill="#70887b" d="M 371.5,661.5 C 366.402,662.957 361.069,663.624 355.5,663.5C 360.616,662.194 365.949,661.527 371.5,661.5 Z"/></g>
<g><path style="opacity:1" fill="#95a8a0" d="M 366.5,655.5 C 360.72,657.043 354.72,658.043 348.5,658.5C 354.18,656.4 360.18,655.4 366.5,655.5 Z"/></g>
<g><path style="opacity:1" fill="#aabab4" d="M 413.5,653.5 C 399.16,653.603 384.827,653.936 370.5,654.5C 378.95,653.009 387.617,652.342 396.5,652.5C 402.343,652.501 408.01,652.834 413.5,653.5 Z"/></g>
<g><path style="opacity:1" fill="#798e85" d="M 519.5,599.5 C 510.134,599.279 500.801,599.613 491.5,600.5C 492.263,599.732 493.263,599.232 494.5,599C 503.01,598.177 511.344,598.343 519.5,599.5 Z"/></g>
<g><path style="opacity:1" fill="#1f4026" d="M 214.5,563.5 C 277.501,563.333 340.501,563.5 403.5,564C 402.944,564.383 402.611,564.883 402.5,565.5C 339.833,565.5 277.167,565.5 214.5,565.5C 214.5,564.833 214.5,564.167 214.5,563.5 Z"/></g>
<g><path style="opacity:1" fill="#244737" d="M 100.5,510.5 C 109.762,508.439 117.262,511.106 123,518.5C 127.835,526.161 129.502,534.494 128,543.5C 123,545.833 118,548.167 113,550.5C 112.308,549.975 111.808,549.308 111.5,548.5C 114.791,545.711 117.958,542.711 121,539.5C 124.218,533.407 124.218,527.407 121,521.5C 111.457,514.921 104.124,516.921 99,527.5C 97.5179,536.115 94.5179,544.115 90,551.5C 78.9958,560.168 69.3291,558.834 61,547.5C 57.9841,540.485 56.8175,533.152 57.5,525.5C 62.1514,524.178 66.8181,522.845 71.5,521.5C 71.6495,522.552 71.4828,523.552 71,524.5C 59.7972,531.294 58.6305,539.46 67.5,549C 76.8842,550.389 83.0508,546.556 86,537.5C 86.7612,530.454 88.7612,523.787 92,517.5C 94.4412,514.546 97.2745,512.213 100.5,510.5 Z"/></g>
<g><path style="opacity:1" fill="#fcf5d4" d="M 733.5,493.5 C 732.376,503.785 730.376,513.785 727.5,523.5C 727.876,517.118 728.709,510.784 730,504.5C 730.763,500.541 731.93,496.874 733.5,493.5 Z"/></g>
<g><path style="opacity:1" fill="#f9f0c7" d="M 157.5,504.5 C 160.005,514.708 162.338,525.041 164.5,535.5C 160.146,525.82 157.813,515.487 157.5,504.5 Z"/></g>
<g><path style="opacity:1" fill="#fbf2cc" d="M 173.5,497.5 C 176.895,505.286 178.562,513.619 178.5,522.5C 176.909,514.277 175.242,505.944 173.5,497.5 Z"/></g>
<g><path style="opacity:1" fill="#214433" d="M 852.5,489.5 C 853.5,489.5 854.5,489.5 855.5,489.5C 854.009,497.103 852.842,504.77 852,512.5C 851.29,513.973 850.124,514.64 848.5,514.5C 848.662,512.473 848.495,510.473 848,508.5C 847.439,507.978 846.772,507.645 846,507.5C 836.537,510.318 827.37,513.818 818.5,518C 825.548,524.049 832.881,529.716 840.5,535C 841.944,535.781 843.277,535.614 844.5,534.5C 845.248,532.668 846.248,531.001 847.5,529.5C 847.833,530.333 848.167,531.167 848.5,532C 847.936,538.701 846.603,545.201 844.5,551.5C 843.772,548.788 842.939,546.121 842,543.5C 833.422,534.917 824.255,527.084 814.5,520C 805.966,517.698 797.3,516.698 788.5,517C 786.253,518.995 785.253,521.495 785.5,524.5C 784.5,524.5 783.5,524.5 782.5,524.5C 784.252,514.903 785.586,505.236 786.5,495.5C 787.5,495.5 788.5,495.5 789.5,495.5C 789.335,498.518 789.502,501.518 790,504.5C 790.5,505 791,505.5 791.5,506C 800.684,509.308 810.017,509.975 819.5,508C 829.727,504.44 839.727,500.273 849.5,495.5C 851.038,493.757 852.038,491.757 852.5,489.5 Z"/></g>
<g><path style="opacity:1" fill="#133317" d="M 402.5,492.5 C 340.002,493.499 277.336,493.832 214.5,493.5C 214.5,516.833 214.5,540.167 214.5,563.5C 214.5,564.167 214.5,564.833 214.5,565.5C 213.502,541.339 213.169,517.006 213.5,492.5C 276.5,492.5 339.5,492.5 402.5,492.5 Z"/></g>
<g><path style="opacity:1" fill="#214433" d="M 110.5,444.5 C 112.265,445.461 114.265,445.795 116.5,445.5C 116.381,458.362 117.048,471.028 118.5,483.5C 118.5,487.5 118.5,491.5 118.5,495.5C 117.5,495.5 116.5,495.5 115.5,495.5C 115.93,492.138 114.93,489.305 112.5,487C 104.841,486.5 97.1739,486.334 89.5,486.5C 81.16,486.334 72.8267,486.5 64.5,487C 61.9644,487.186 59.631,487.686 57.5,488.5C 56.5416,488.953 55.7083,489.619 55,490.5C 54.5034,492.81 54.3367,495.143 54.5,497.5C 53.5,497.5 52.5,497.5 51.5,497.5C 51.5139,486.154 51.1806,474.821 50.5,463.5C 50.5,459.5 50.5,455.5 50.5,451.5C 51.791,451.737 52.791,451.404 53.5,450.5C 57.226,450.177 60.8927,450.511 64.5,451.5C 62.2751,452.894 59.9418,454.06 57.5,455C 55.9512,456.214 54.7845,457.714 54,459.5C 53.2097,465.552 53.3764,471.552 54.5,477.5C 63.1457,478.265 71.8123,478.265 80.5,477.5C 80.5,472.5 80.5,467.5 80.5,462.5C 81.3195,465.305 81.8195,468.305 82,471.5C 83.0844,468.166 83.9177,464.832 84.5,461.5C 84.5,466.833 84.5,472.167 84.5,477.5C 90.69,477.823 96.69,477.49 102.5,476.5C 106.603,477.231 110.103,476.231 113,473.5C 113.667,467.5 113.667,461.5 113,455.5C 110.279,449.963 105.779,446.963 99.5,446.5C 99.5,445.5 99.5,444.5 99.5,443.5C 103.179,443.724 106.846,444.058 110.5,444.5 Z"/></g>
<g><path style="opacity:1" fill="#5e7667" d="M 89.5,486.5 C 78.9989,487.385 68.3323,488.052 57.5,488.5C 59.631,487.686 61.9644,487.186 64.5,487C 72.8267,486.5 81.16,486.334 89.5,486.5 Z"/></g>
<g><path style="opacity:1" fill="#889c94" d="M 85.5,460.5 C 85.5,465.833 85.5,471.167 85.5,476.5C 91.1667,476.5 96.8333,476.5 102.5,476.5C 96.69,477.49 90.69,477.823 84.5,477.5C 84.5,472.167 84.5,466.833 84.5,461.5C 84.5,460.833 84.8333,460.5 85.5,460.5 Z"/></g>
<g><path style="opacity:1" fill="#f9edc3" d="M 159.5,399.5 C 153.651,434.36 152.985,469.36 157.5,504.5C 156.252,503.666 155.585,502.333 155.5,500.5C 152.198,467.331 153.031,434.331 158,401.5C 158.278,400.584 158.778,399.918 159.5,399.5 Z"/></g>
<g><path style="opacity:1" fill="#c7d5ce" d="M 110.5,444.5 C 112.833,444.5 115.167,444.5 117.5,444.5C 118.238,457.487 118.571,470.487 118.5,483.5C 117.048,471.028 116.381,458.362 116.5,445.5C 114.265,445.795 112.265,445.461 110.5,444.5 Z"/></g>
<g><path style="opacity:1" fill="#1d3e2e" d="M 85.5,460.5 C 84.8333,460.5 84.5,460.833 84.5,461.5C 83.9177,464.832 83.0844,468.166 82,471.5C 81.8195,468.305 81.3195,465.305 80.5,462.5C 79.2032,458.842 76.5365,457.176 72.5,457.5C 72.5,456.5 72.5,455.5 72.5,454.5C 79.1998,454.17 85.8665,454.503 92.5,455.5C 89.7111,456.633 87.3778,458.3 85.5,460.5 Z"/></g>
<g><path style="opacity:1" fill="#768980" d="M 53.5,450.5 C 52.791,451.404 51.791,451.737 50.5,451.5C 50.5,455.5 50.5,459.5 50.5,463.5C 49.5151,459.366 49.1818,455.032 49.5,450.5C 50.8333,450.5 52.1667,450.5 53.5,450.5 Z"/></g>
<g><path style="opacity:1" fill="#e6d394" d="M 734.5,431.5 C 736.376,442.136 736.709,452.803 735.5,463.5C 735.245,452.83 734.912,442.164 734.5,431.5 Z"/></g>
<g><path style="opacity:1" fill="#7b8f86" d="M 789.5,443.5 C 790.166,446.358 790.833,449.358 791.5,452.5C 792.169,450.369 792.835,448.369 793.5,446.5C 793.5,448.833 793.5,451.167 793.5,453.5C 792.167,453.5 790.833,453.5 789.5,453.5C 789.5,450.167 789.5,446.833 789.5,443.5 Z"/></g>
<g><path style="opacity:1" fill="#faf1cd" d="M 751.5,429.5 C 752.268,430.263 752.768,431.263 753,432.5C 755.121,461.843 753.121,490.843 747,519.5C 746.617,520.056 746.117,520.389 745.5,520.5C 751.349,490.413 753.349,460.079 751.5,429.5 Z"/></g>
<g><path style="opacity:1" fill="#fdf7df" d="M 175.5,406.5 C 172.399,435.42 171.732,464.42 173.5,493.5C 172.691,491.708 172.191,489.708 172,487.5C 169.192,460.172 170.359,433.172 175.5,406.5 Z"/></g>
<g><path style="opacity:1" fill="#a9b9b3" d="M 791.5,423.5 C 789.544,429.412 788.877,435.745 789.5,442.5C 788.509,436.021 788.176,429.354 788.5,422.5C 789.791,422.263 790.791,422.596 791.5,423.5 Z"/></g>
<g><path style="opacity:1" fill="#224434" d="M 793.5,446.5 C 792.835,448.369 792.169,450.369 791.5,452.5C 790.833,449.358 790.166,446.358 789.5,443.5C 789.5,443.167 789.5,442.833 789.5,442.5C 788.877,435.745 789.544,429.412 791.5,423.5C 791.503,426.675 792.503,429.508 794.5,432C 813.881,432.623 833.214,432.123 852.5,430.5C 853.111,424.566 852.278,418.9 850,413.5C 846.965,411.03 843.465,409.696 839.5,409.5C 839.5,408.5 839.5,407.5 839.5,406.5C 845.5,406.5 851.5,406.5 857.5,406.5C 855.95,411.444 855.283,416.611 855.5,422C 856.014,433.833 856.514,445.666 857,457.5C 858.559,459.217 859.392,461.217 859.5,463.5C 853.471,463.425 847.471,463.759 841.5,464.5C 841.5,463.5 841.5,462.5 841.5,461.5C 845.694,461.27 849.194,459.603 852,456.5C 853.397,451.292 853.897,445.959 853.5,440.5C 835.823,440.596 818.157,441.096 800.5,442C 798.392,442.36 796.392,443.027 794.5,444C 793.748,444.671 793.414,445.504 793.5,446.5 Z"/></g>
<g><path style="opacity:1" fill="#b0c3bb" d="M 119.5,403.5 C 120.579,408.552 120.246,413.552 118.5,418.5C 118.613,413.482 118.947,408.482 119.5,403.5 Z"/></g>
<g><path style="opacity:1" fill="#214534" d="M 119.5,403.5 C 118.947,408.482 118.613,413.482 118.5,418.5C 117.627,422.768 117.294,427.102 117.5,431.5C 116.5,431.5 115.5,431.5 114.5,431.5C 115.688,426.569 114.022,423.236 109.5,421.5C 104.432,419.822 99.0984,419.156 93.5,419.5C 87.1136,419.161 80.7803,418.495 74.5,417.5C 70.3537,416.552 66.0203,415.885 61.5,415.5C 59.1175,415.361 57.1175,416.028 55.5,417.5C 54.0762,419.515 53.4095,421.848 53.5,424.5C 52.5,424.5 51.5,424.5 50.5,424.5C 51.5007,415.164 52.5007,405.83 53.5,396.5C 54.5,396.5 55.5,396.5 56.5,396.5C 54.4852,403.646 57.1519,407.146 64.5,407C 79.3043,408.793 94.1376,410.293 109,411.5C 114.754,411.912 117.254,409.245 116.5,403.5C 117.5,403.5 118.5,403.5 119.5,403.5 Z"/></g>
<g><path style="opacity:1" fill="#7b9285" d="M 93.5,419.5 C 99.0984,419.156 104.432,419.822 109.5,421.5C 103.979,421.218 98.646,420.551 93.5,419.5 Z"/></g>
<g><path style="opacity:1" fill="#b0c1b9" d="M 74.5,417.5 C 68.1667,417.5 61.8333,417.5 55.5,417.5C 57.1175,416.028 59.1175,415.361 61.5,415.5C 66.0203,415.885 70.3537,416.552 74.5,417.5 Z"/></g>
<g><path style="opacity:1" fill="#f5eabd" d="M 744.5,390.5 C 747.908,397.357 749.575,404.691 749.5,412.5C 747.288,405.425 745.621,398.092 744.5,390.5 Z"/></g>
<g><path style="opacity:1" fill="#f8edc4" d="M 181.5,378.5 C 181.664,381.187 181.497,383.854 181,386.5C 179.603,393.333 177.77,400 175.5,406.5C 176.371,396.803 178.371,387.47 181.5,378.5 Z"/></g>
<g><path style="opacity:1" fill="#d1ab42" d="M 726.5,335.5 C 728.88,341.8 731.547,347.8 734.5,353.5C 738.591,365.617 741.924,377.951 744.5,390.5C 745.621,398.092 747.288,405.425 749.5,412.5C 749.876,418.217 750.543,423.884 751.5,429.5C 753.349,460.079 751.349,490.413 745.5,520.5C 731.391,581.385 701.725,633.385 656.5,676.5C 654.101,672.729 651.434,669.062 648.5,665.5C 647.386,664.277 647.219,662.944 648,661.5C 687.732,623.025 714.232,577.025 727.5,523.5C 730.376,513.785 732.376,503.785 733.5,493.5C 734.451,483.523 735.117,473.523 735.5,463.5C 736.709,452.803 736.376,442.136 734.5,431.5C 733.703,421.384 732.37,411.384 730.5,401.5C 728.738,392.237 726.405,383.237 723.5,374.5C 720.591,363.276 716.757,352.276 712,341.5C 707.777,335.278 704.444,328.611 702,321.5C 695.843,311.195 689.177,301.195 682,291.5C 681.168,282.814 681.335,274.147 682.5,265.5C 700.904,286.553 715.571,309.886 726.5,335.5 Z"/></g>
<g><path style="opacity:1" fill="#f8edc5" d="M 723.5,374.5 C 726.405,383.237 728.738,392.237 730.5,401.5C 729.768,400.192 728.934,398.858 728,397.5C 726.362,389.868 724.862,382.201 723.5,374.5 Z"/></g>
<g><path style="opacity:1" fill="#264737" d="M 483.5,378.5 C 484.833,385.167 484.833,391.833 483.5,398.5C 480.73,394.476 478.064,390.309 475.5,386C 477.906,383.284 480.573,380.784 483.5,378.5 Z"/></g>
<g><path style="opacity:1" fill="#aaafad" d="M 483.5,378.5 C 483.56,377.957 483.893,377.624 484.5,377.5C 485.833,385.167 485.833,392.833 484.5,400.5C 483.702,400.043 483.369,399.376 483.5,398.5C 484.833,391.833 484.833,385.167 483.5,378.5 Z"/></g>
<g><path style="opacity:1" fill="#264838" d="M 843.5,357.5 C 844.5,357.5 845.5,357.5 846.5,357.5C 847.515,365.382 848.848,373.215 850.5,381C 850.167,382.167 849.833,383.333 849.5,384.5C 848.258,382.267 846.924,380.101 845.5,378C 844,377.833 842.5,377.667 841,377.5C 823.62,380.09 806.454,383.59 789.5,388C 788.556,390.719 788.223,393.552 788.5,396.5C 787.5,396.5 786.5,396.5 785.5,396.5C 783.984,387.443 782.317,378.443 780.5,369.5C 781.675,369.281 782.675,369.614 783.5,370.5C 784.167,372.167 784.833,373.833 785.5,375.5C 787.167,375.833 788.833,376.167 790.5,376.5C 807.965,373.707 825.298,370.207 842.5,366C 843.444,363.281 843.777,360.448 843.5,357.5 Z"/></g>
<g><path style="opacity:1" fill="#254837" d="M 67.5,329.5 C 72.4516,330.492 77.4516,331.158 82.5,331.5C 82.5,332.5 82.5,333.5 82.5,334.5C 72.1581,334.003 66.6581,339.003 66,349.5C 65.3333,351.833 65.3333,354.167 66,356.5C 74.2595,359.523 82.7595,361.523 91.5,362.5C 94.0228,356.765 95.1895,350.765 95,344.5C 93.8455,343.257 92.5122,342.257 91,341.5C 90.2506,340.365 90.4173,339.365 91.5,338.5C 97.4285,340.219 103.429,341.552 109.5,342.5C 109.5,343.5 109.5,344.5 109.5,345.5C 105.713,344.814 102.546,345.814 100,348.5C 97.5221,353.588 96.5221,358.921 97,364.5C 104.897,367.745 113.064,369.578 121.5,370C 123.264,367.488 124.931,364.988 126.5,362.5C 126.833,363.333 127.167,364.167 127.5,365C 125.097,373.445 123.097,381.945 121.5,390.5C 120.5,390.5 119.5,390.5 118.5,390.5C 119.15,386.393 118.15,382.893 115.5,380C 99.1042,375.454 82.6042,371.287 66,367.5C 64.8333,367.667 63.6667,367.833 62.5,368C 61.1111,369.957 59.6111,371.79 58,373.5C 57.5,373.167 57,372.833 56.5,372.5C 60.7997,358.337 64.4664,344.004 67.5,329.5 Z"/></g>
<g><path style="opacity:1" fill="#aeb7b3" d="M 483.5,345.5 C 483.56,344.957 483.893,344.624 484.5,344.5C 485.665,354.149 485.832,363.816 485,373.5C 484.184,374.823 483.017,375.489 481.5,375.5C 482.122,374.373 482.955,373.373 484,372.5C 484.824,363.324 484.657,354.324 483.5,345.5 Z"/></g>
<g><path style="opacity:1" fill="#214636" d="M 483.5,345.5 C 484.657,354.324 484.824,363.324 484,372.5C 482.955,373.373 482.122,374.373 481.5,375.5C 478.289,377.36 475.122,379.36 472,381.5C 467.051,376.304 461.884,371.47 456.5,367C 465.027,359.314 474.027,352.147 483.5,345.5 Z"/></g>
<g><path style="opacity:1" fill="#2a4839" d="M 421.5,345.5 C 428.214,349.367 434.547,353.867 440.5,359C 434.366,357.269 428.033,356.103 421.5,355.5C 421.5,352.167 421.5,348.833 421.5,345.5 Z"/></g>
<g><path style="opacity:1" fill="#234635" d="M 814.5,303.5 C 829.736,304.909 837.736,313.409 838.5,329C 838.167,330.167 837.833,331.333 837.5,332.5C 833.254,334.791 828.921,336.791 824.5,338.5C 824.351,337.448 824.517,336.448 825,335.5C 828.038,332.797 830.705,329.797 833,326.5C 833.443,313.298 827.276,308.798 814.5,313C 812.383,314.731 810.883,316.898 810,319.5C 808.412,326.107 807.079,332.774 806,339.5C 800.906,352.869 791.74,356.702 778.5,351C 768.722,343.594 764.889,333.76 767,321.5C 771.685,317.904 776.851,315.571 782.5,314.5C 778.906,318.951 775.406,323.617 772,328.5C 770.822,335.981 773.322,341.814 779.5,346C 788.887,347.558 794.72,343.724 797,334.5C 797.724,326.938 799.391,319.605 802,312.5C 804.917,307.637 809.083,304.637 814.5,303.5 Z"/></g>
<g><path style="opacity:1" fill="#f9f2d3" d="M 726.5,335.5 C 731.109,340.46 733.776,346.46 734.5,353.5C 731.547,347.8 728.88,341.8 726.5,335.5 Z"/></g>
<g><path style="opacity:1" fill="#f2e5b1" d="M 195.5,341.5 C 196.309,331.243 196.809,320.91 197,310.5C 198.422,307.97 198.755,305.303 198,302.5C 197.617,303.056 197.117,303.389 196.5,303.5C 196.415,302.005 197.081,301.005 198.5,300.5C 198.833,302 199.167,303.5 199.5,305C 198.349,317.458 197.016,329.625 195.5,341.5 Z"/></g>
<g><path style="opacity:1" fill="#a6bab2" d="M 208.5,308.5 C 206.658,330.602 207.325,352.602 210.5,374.5C 208.579,370.491 207.412,366.157 207,361.5C 206.333,344.833 206.333,328.167 207,311.5C 207.232,310.263 207.732,309.263 208.5,308.5 Z"/></g>
<g><path style="opacity:1" fill="#a8afad" d="M 483.5,312.5 C 483.56,311.957 483.893,311.624 484.5,311.5C 485.822,320.992 485.822,330.325 484.5,339.5C 484.827,330.318 484.493,321.318 483.5,312.5 Z"/></g>
<g><path style="opacity:1" fill="#214636" d="M 483.5,312.5 C 484.493,321.318 484.827,330.318 484.5,339.5C 474.763,346.125 465.263,353.125 456,360.5C 455.333,351.5 455.333,342.5 456,333.5C 465.043,326.284 474.21,319.284 483.5,312.5 Z"/></g>
<g><path style="opacity:1" fill="#e2eae5" d="M 450.5,299.5 C 451.494,308.652 451.827,317.985 451.5,327.5C 449.641,327.461 448.308,328.294 447.5,330C 448.756,330.417 449.423,331.25 449.5,332.5C 440.124,325.444 430.791,318.444 421.5,311.5C 422.301,309.958 422.634,308.292 422.5,306.5C 431.482,313.142 440.482,319.809 449.5,326.5C 450.498,317.525 450.832,308.525 450.5,299.5 Z"/></g>
<g><path style="opacity:1" fill="#1f4433" d="M 421.5,311.5 C 430.791,318.444 440.124,325.444 449.5,332.5C 450.638,341.756 450.805,351.089 450,360.5C 440.846,353.257 431.512,346.257 422,339.5C 421.5,330.173 421.334,320.839 421.5,311.5 Z"/></g>
<g><path style="opacity:1" fill="#d1ab42" d="M 195.5,341.5 C 189.488,353.214 184.821,365.548 181.5,378.5C 178.371,387.47 176.371,396.803 175.5,406.5C 170.359,433.172 169.192,460.172 172,487.5C 172.191,489.708 172.691,491.708 173.5,493.5C 173.5,494.833 173.5,496.167 173.5,497.5C 175.242,505.944 176.909,514.277 178.5,522.5C 191.479,576.372 217.979,622.706 258,661.5C 258.667,662.833 258.667,664.167 258,665.5C 255.64,668.36 253.473,671.36 251.5,674.5C 250.635,675.583 249.635,675.749 248.5,675C 208.109,636.067 180.109,589.567 164.5,535.5C 162.338,525.041 160.005,514.708 157.5,504.5C 152.985,469.36 153.651,434.36 159.5,399.5C 166.819,365.432 179.153,333.432 196.5,303.5C 197.117,303.389 197.617,303.056 198,302.5C 198.755,305.303 198.422,307.97 197,310.5C 196.809,320.91 196.309,331.243 195.5,341.5 Z"/></g>
<g><path style="opacity:1" fill="#6b8173" d="M 413.5,239.5 C 414.498,263.661 414.831,287.994 414.5,312.5C 371.5,312.5 328.5,312.5 285.5,312.5C 327.997,311.501 370.663,311.168 413.5,311.5C 413.5,287.5 413.5,263.5 413.5,239.5 Z"/></g>
<g><path style="opacity:1" fill="#566d5a" d="M 670.5,473.5 C 670.5,400.5 670.5,327.5 670.5,254.5C 646.339,253.502 622.006,253.169 597.5,253.5C 597.5,324.5 597.5,395.5 597.5,466.5C 597.167,466.5 596.833,466.5 596.5,466.5C 596.5,395.167 596.5,323.833 596.5,252.5C 621.5,252.5 646.5,252.5 671.5,252.5C 671.833,326.335 671.499,400.002 670.5,473.5 Z"/></g>
<g><path style="opacity:1" fill="#204534" d="M 450.5,299.5 C 450.832,308.525 450.498,317.525 449.5,326.5C 440.482,319.809 431.482,313.142 422.5,306.5C 421.178,297.325 421.178,287.992 422.5,278.5C 431.852,285.524 441.185,292.524 450.5,299.5 Z"/></g>
<g><path style="opacity:1" fill="#274938" d="M 106.5,241.5 C 107.675,241.281 108.675,241.614 109.5,242.5C 107.717,246.539 108.384,250.039 111.5,253C 118.634,257.152 125.968,260.818 133.5,264C 139.95,267.308 145.783,271.474 151,276.5C 159.438,293.919 155.271,307.419 138.5,317C 130.502,318.291 122.836,317.291 115.5,314C 106.167,309.333 96.8333,304.667 87.5,300C 83.7897,298.776 81.1231,299.942 79.5,303.5C 78.675,304.386 77.675,304.719 76.5,304.5C 79.0465,296.539 82.3798,288.873 86.5,281.5C 87.723,280.386 89.0563,280.219 90.5,281C 88.9465,284.565 89.2799,287.899 91.5,291C 102.623,296.896 113.956,302.229 125.5,307C 142.65,309.839 151.15,302.673 151,285.5C 148.559,279.392 144.392,274.892 138.5,272C 128.741,266.787 118.741,262.12 108.5,258C 104.326,256.982 101.326,258.482 99.5,262.5C 98.675,263.386 97.675,263.719 96.5,263.5C 99.2818,255.935 102.615,248.602 106.5,241.5 Z"/></g>
<g><path style="opacity:1" fill="#214736" d="M 483.5,278.5 C 484.493,287.318 484.827,296.318 484.5,305.5C 474.9,312.587 465.4,319.92 456,327.5C 455.168,318.149 455.335,308.816 456.5,299.5C 465.711,292.733 474.711,285.733 483.5,278.5 Z"/></g>
<g><path style="opacity:1" fill="#a9b1ae" d="M 483.5,278.5 C 483.56,277.957 483.893,277.624 484.5,277.5C 485.822,286.992 485.822,296.325 484.5,305.5C 484.827,296.318 484.493,287.318 483.5,278.5 Z"/></g>
<g><path style="opacity:1" fill="#244636" d="M 786.5,225.5 C 788.017,225.511 789.184,226.177 790,227.5C 795,236.167 800,244.833 805,253.5C 809.022,270.808 802.189,278.975 784.5,278C 782.167,276.833 779.833,275.667 777.5,274.5C 773.415,281 769.582,287.667 766,294.5C 764.36,300.056 763.527,305.722 763.5,311.5C 762.325,311.719 761.325,311.386 760.5,310.5C 756.86,304.634 755.693,298.301 757,291.5C 760.397,284.374 764.063,277.374 768,270.5C 769.969,264.679 768.135,261.512 762.5,261C 756.125,264.047 750.292,267.881 745,272.5C 744.275,275.377 744.775,278.043 746.5,280.5C 746,280.833 745.5,281.167 745,281.5C 740.096,274.702 735.429,267.702 731,260.5C 730.517,259.552 730.351,258.552 730.5,257.5C 731.552,257.351 732.552,257.517 733.5,258C 735.615,262.385 738.949,263.552 743.5,261.5C 758.084,252.625 772.584,243.625 787,234.5C 787.495,231.469 787.329,228.469 786.5,225.5 Z"/></g>
<g><path style="opacity:1" fill="#1e4534" d="M 670.5,254.5 C 670.5,327.5 670.5,400.5 670.5,473.5C 670.293,487.449 666.293,500.116 658.5,511.5C 654.398,509.033 650.232,506.7 646,504.5C 641.124,509.207 636.457,514.207 632,519.5C 631.333,520.167 631.333,520.833 632,521.5C 635.167,524.667 638.333,527.833 641.5,531C 631.23,540.385 619.73,547.885 607,553.5C 604.172,549.851 601.338,546.184 598.5,542.5C 592,544.986 585.334,546.986 578.5,548.5C 578.779,553.227 579.446,557.893 580.5,562.5C 566.022,565.681 551.355,567.014 536.5,566.5C 536.5,561.833 536.5,557.167 536.5,552.5C 528.045,552.154 519.712,551.154 511.5,549.5C 511.154,554.216 510.487,558.883 509.5,563.5C 496.108,561.655 483.441,557.655 471.5,551.5C 470.585,550.672 469.919,549.672 469.5,548.5C 485.409,529.444 493.742,507.444 494.5,482.5C 500.47,490.154 508.137,495.321 517.5,498C 542.298,505.726 564.965,501.726 585.5,486C 591.09,480.579 594.757,474.079 596.5,466.5C 596.833,466.5 597.167,466.5 597.5,466.5C 598.5,397.208 598.833,326.541 598.5,254.5C 622.5,254.5 646.5,254.5 670.5,254.5 Z"/></g>
<g><path style="opacity:1" fill="#153021" d="M 670.5,254.5 C 646.5,254.5 622.5,254.5 598.5,254.5C 598.833,326.541 598.5,397.208 597.5,466.5C 597.5,395.5 597.5,324.5 597.5,253.5C 622.006,253.169 646.339,253.502 670.5,254.5 Z"/></g>
<g><path style="opacity:1" fill="#214634" d="M 421.5,245.5 C 431.132,251.995 440.465,258.995 449.5,266.5C 450.665,275.482 450.832,284.482 450,293.5C 440.922,286.711 431.755,280.044 422.5,273.5C 421.502,264.19 421.168,254.857 421.5,245.5 Z"/></g>
<g><path style="opacity:1" fill="#a8b0ad" d="M 483.5,245.5 C 483.56,244.957 483.893,244.624 484.5,244.5C 485.822,253.992 485.822,263.325 484.5,272.5C 484.827,263.318 484.493,254.318 483.5,245.5 Z"/></g>
<g><path style="opacity:1" fill="#224737" d="M 483.5,245.5 C 484.493,254.318 484.827,263.318 484.5,272.5C 475.209,279.444 465.876,286.444 456.5,293.5C 455.335,284.518 455.168,275.518 456,266.5C 465.043,259.284 474.21,252.284 483.5,245.5 Z"/></g>
<g><path style="opacity:1" fill="#f3f6f5" d="M 790.5,243.5 C 795.092,242.916 797.925,244.916 799,249.5C 801.991,259.028 798.824,265.695 789.5,269.5C 784.749,270.881 780.083,270.714 775.5,269C 773.333,266.167 771.167,263.333 769,260.5C 768.219,259.056 768.386,257.723 769.5,256.5C 776.732,252.392 783.732,248.059 790.5,243.5 Z"/></g>
<g><path style="opacity:1" fill="#1e4534" d="M 413.5,239.5 C 413.5,263.5 413.5,287.5 413.5,311.5C 370.663,311.168 327.997,311.501 285.5,312.5C 283.83,312.751 282.33,313.418 281,314.5C 278.587,317.062 276.92,320.062 276,323.5C 275.333,332.5 275.333,341.5 276,350.5C 277.302,354.274 279.469,357.441 282.5,360C 326.121,361.312 369.787,361.979 413.5,362C 438.25,362.882 457.75,373.382 472,393.5C 482.422,408.81 488.422,425.81 490,444.5C 491.589,466.704 490.256,488.704 486,510.5C 479.774,531.059 467.274,546.559 448.5,557C 433.758,563.035 418.425,565.868 402.5,565.5C 402.611,564.883 402.944,564.383 403.5,564C 340.501,563.5 277.501,563.333 214.5,563.5C 214.5,540.167 214.5,516.833 214.5,493.5C 277.336,493.832 340.002,493.499 402.5,492.5C 413.14,493.089 419.307,488.089 421,477.5C 421.667,467.833 421.667,458.167 421,448.5C 420.504,442.334 417.338,438.167 411.5,436C 367.167,435.667 322.833,435.333 278.5,435C 248.244,433.412 227.411,418.579 216,390.5C 213.858,385.239 212.025,379.906 210.5,374.5C 207.325,352.602 206.658,330.602 208.5,308.5C 210.814,287.369 219.481,269.202 234.5,254C 245.156,246.01 257.156,241.344 270.5,240C 318.166,239.5 365.832,239.333 413.5,239.5 Z"/></g>
<g><path style="opacity:1" fill="#e1cd8e" d="M 633.5,239.5 C 634.756,239.461 635.756,239.961 636.5,241C 640.167,241.167 643.833,241.333 647.5,241.5C 651.565,241.489 655.232,240.822 658.5,239.5C 659.404,240.209 659.737,241.209 659.5,242.5C 651.493,242.666 643.493,242.5 635.5,242C 634.619,241.292 633.953,240.458 633.5,239.5 Z"/></g>
<g><path style="opacity:1" fill="#214635" d="M 452.5,236.5 C 458.139,240.338 463.472,244.671 468.5,249.5C 463.651,254.18 458.484,258.513 453,262.5C 447.992,258.323 443.159,253.99 438.5,249.5C 443.187,245.145 447.854,240.812 452.5,236.5 Z"/></g>
<g><path style="opacity:1" fill="#224635" d="M 136.5,199.5 C 137.5,199.5 138.5,199.5 139.5,199.5C 137.749,202.929 137.249,206.595 138,210.5C 151.564,221.364 165.397,231.864 179.5,242C 181.635,242.635 183.635,242.301 185.5,241C 191.219,236.069 194.052,229.902 194,222.5C 192.6,219.26 191.433,215.927 190.5,212.5C 195.414,215.414 199.414,219.414 202.5,224.5C 192.808,237.025 183.308,249.692 174,262.5C 173.13,261.892 172.63,261.059 172.5,260C 176.744,255.028 176.078,250.694 170.5,247C 157.833,237.667 145.167,228.333 132.5,219C 128.651,218.156 125.484,219.322 123,222.5C 122.5,222.167 122,221.833 121.5,221.5C 126.551,214.131 131.551,206.798 136.5,199.5 Z"/></g>
<g><path style="opacity:1" fill="#d1ab42" d="M 479.5,159.5 C 486.5,160.167 493.5,160.833 500.5,161.5C 511.079,163.827 521.745,166.161 532.5,168.5C 580.196,182.341 622.196,206.007 658.5,239.5C 655.232,240.822 651.565,241.489 647.5,241.5C 643.833,241.333 640.167,241.167 636.5,241C 635.756,239.961 634.756,239.461 633.5,239.5C 597.773,209.972 557.106,190.638 511.5,181.5C 499.68,177.64 487.347,175.64 474.5,175.5C 473.167,175.5 471.833,175.5 470.5,175.5C 433.412,172.508 397.412,177.175 362.5,189.5C 355.65,191.449 348.983,193.783 342.5,196.5C 338.353,197.759 334.686,199.759 331.5,202.5C 316.341,208.752 302.341,217.085 289.5,227.5C 281.649,228.016 273.982,229.016 266.5,230.5C 263.756,231.205 261.089,231.205 258.5,230.5C 278.007,213.376 299.34,198.876 322.5,187C 346.226,176.648 370.892,168.648 396.5,163C 403.783,161.673 411.116,160.84 418.5,160.5C 438.798,158.312 459.132,157.978 479.5,159.5 Z"/></g>
<g><path style="opacity:1" fill="#fbf2cc" d="M 289.5,227.5 C 289.196,228.15 288.863,228.817 288.5,229.5C 281.197,230.497 273.863,230.831 266.5,230.5C 273.982,229.016 281.649,228.016 289.5,227.5 Z"/></g>
<g><path style="opacity:1" fill="#244636" d="M 738.5,166.5 C 740.371,166.859 741.871,167.859 743,169.5C 751.847,179.678 760.68,189.845 769.5,200C 766.659,204.521 762.992,207.854 758.5,210C 758.043,209.586 757.709,209.086 757.5,208.5C 761.005,204.792 762.172,200.459 761,195.5C 757.5,191.333 754,187.167 750.5,183C 749.5,182.333 748.5,182.333 747.5,183C 741.133,188.369 735.133,194.036 729.5,200C 732.775,204.279 736.442,208.279 740.5,212C 743.729,212.586 746.729,212.086 749.5,210.5C 749.649,211.552 749.483,212.552 749,213.5C 744.366,217.132 740.033,221.132 736,225.5C 735.13,224.892 734.63,224.059 734.5,223C 736.366,220.784 737.2,218.284 737,215.5C 733.627,210.75 729.794,206.417 725.5,202.5C 719.509,208.323 713.343,213.989 707,219.5C 706.333,221.167 706.333,222.833 707,224.5C 710.465,228.967 714.298,233.133 718.5,237C 720.199,237.958 722.033,238.458 724,238.5C 727.857,237.895 731.69,237.228 735.5,236.5C 735.439,238.592 734.439,240.092 732.5,241C 728.809,243.019 725.142,244.686 721.5,246C 710.617,233.739 699.617,221.572 688.5,209.5C 689,209.167 689.5,208.833 690,208.5C 692.555,210.111 695.222,211.444 698,212.5C 700.38,211.799 702.547,210.633 704.5,209C 716.239,198.05 728.072,187.217 740,176.5C 740.93,173.15 740.097,170.317 737.5,168C 738.056,167.617 738.389,167.117 738.5,166.5 Z"/></g>
<g><path style="opacity:1" fill="#efe0af" d="M 342.5,196.5 C 342.047,197.458 341.381,198.292 340.5,199C 337.707,200.654 334.707,201.821 331.5,202.5C 334.686,199.759 338.353,197.759 342.5,196.5 Z"/></g>
<g><path style="opacity:1" fill="#faf1ca" d="M 474.5,175.5 C 487.347,175.64 499.68,177.64 511.5,181.5C 499.469,179.787 487.469,178.287 475.5,177C 474.944,176.617 474.611,176.117 474.5,175.5 Z"/></g>
<g><path style="opacity:1" fill="#faf1cc" d="M 470.5,175.5 C 458.829,175.333 447.162,175.5 435.5,176C 428.668,177.296 421.668,177.963 414.5,178C 397.047,181.511 379.714,185.344 362.5,189.5C 397.412,177.175 433.412,172.508 470.5,175.5 Z"/></g>
<g><path style="opacity:1" fill="#244636" d="M 666.5,107.5 C 672.455,110.818 678.122,114.651 683.5,119C 689.071,124.109 688.405,125.275 681.5,122.5C 679.575,122.59 678.408,123.59 678,125.5C 673.042,140.671 669.042,156.004 666,171.5C 679.12,163.695 691.954,155.529 704.5,147C 707.494,143.136 706.827,139.969 702.5,137.5C 702.833,136.5 703.5,135.833 704.5,135.5C 710.81,139.815 716.81,144.482 722.5,149.5C 717.168,149.091 711.835,149.591 706.5,151C 689.4,161.632 672.234,172.132 655,182.5C 654.228,182.355 653.561,182.022 653,181.5C 652.333,179.833 652.333,178.167 653,176.5C 658.464,157.773 664.131,139.107 670,120.5C 671.282,116.416 670.282,113.082 667,110.5C 666.517,109.552 666.351,108.552 666.5,107.5 Z"/></g>
<g><path style="opacity:1" fill="#234736" d="M 186.5,147.5 C 187.675,147.281 188.675,147.614 189.5,148.5C 186.334,151.826 185.834,155.493 188,159.5C 198.982,171.983 210.149,184.316 221.5,196.5C 223.074,197.631 224.741,197.798 226.5,197C 232.764,193.085 237.098,187.752 239.5,181C 239.27,177.408 238.27,174.075 236.5,171C 237.536,169.383 238.703,169.216 240,170.5C 241.271,173.433 242.938,176.099 245,178.5C 245.681,180.529 246.014,182.529 246,184.5C 235.28,195.056 224.114,205.056 212.5,214.5C 212.167,214 211.833,213.5 211.5,213C 214.096,209.931 214.929,206.431 214,202.5C 202.535,189.366 190.701,176.533 178.5,164C 175.311,163.505 172.477,164.339 170,166.5C 169.5,166.167 169,165.833 168.5,165.5C 174.215,159.119 180.215,153.119 186.5,147.5 Z"/></g>
<g><path style="opacity:1" fill="#f8edc1" d="M 500.5,161.5 C 509.587,162.417 518.587,163.917 527.5,166C 529.491,166.374 531.158,167.207 532.5,168.5C 521.745,166.161 511.079,163.827 500.5,161.5 Z"/></g>
<g><path style="opacity:1" fill="#f1e0a7" d="M 479.5,159.5 C 459.132,157.978 438.798,158.312 418.5,160.5C 422.619,159.262 426.953,158.429 431.5,158C 438.333,157.833 445.167,157.667 452,157.5C 461.389,157.278 470.556,157.945 479.5,159.5 Z"/></g>
<g><path style="opacity:1" fill="#234736" d="M 243.5,105.5 C 244.497,105.47 245.164,105.97 245.5,107C 244.392,109.112 242.892,110.946 241,112.5C 240.333,113.5 240.333,114.5 241,115.5C 251.13,130.928 261.63,146.095 272.5,161C 275.076,161.606 277.41,161.106 279.5,159.5C 280.167,159.833 280.833,160.167 281.5,160.5C 274.551,165.982 267.217,170.982 259.5,175.5C 258.692,175.192 258.025,174.692 257.5,174C 259,172.5 260.5,171 262,169.5C 262.667,167.5 262.667,165.5 262,163.5C 252.608,150.44 243.608,137.106 235,123.5C 231.645,118.652 227.812,118.319 223.5,122.5C 222.269,121.349 222.269,120.183 223.5,119C 230.405,114.725 237.072,110.225 243.5,105.5 Z"/></g>
<g><path style="opacity:1" fill="#254636" d="M 330.5,64.5 C 331.497,64.4701 332.164,64.9701 332.5,66C 331.022,67.4782 329.522,68.9782 328,70.5C 327.333,72.8333 327.333,75.1667 328,77.5C 334.942,95.4966 341.775,113.497 348.5,131.5C 346.073,131.477 343.74,130.977 341.5,130C 323.112,119.721 304.612,109.554 286,99.5C 285.333,100.5 285.333,101.5 286,102.5C 289.532,110.765 292.865,119.098 296,127.5C 298.328,131.798 300.661,136.131 303,140.5C 304.299,141.98 305.966,142.646 308,142.5C 310.187,142.212 312.354,141.878 314.5,141.5C 314.5,142.5 314.5,143.5 314.5,144.5C 307.207,147.424 299.874,150.424 292.5,153.5C 291.417,152.635 291.251,151.635 292,150.5C 295.139,149.194 296.972,146.861 297.5,143.5C 292.898,129.628 287.732,115.962 282,102.5C 279.688,95.4922 275.021,92.8255 268,94.5C 266.72,94.3865 265.887,93.7199 265.5,92.5C 270.19,88.6485 275.523,86.8152 281.5,87C 299.914,97.0434 318.581,106.877 337.5,116.5C 338.583,115.635 338.749,114.635 338,113.5C 333.047,101.299 327.714,89.2989 322,77.5C 321.167,76.6667 320.333,75.8333 319.5,75C 316.083,74.9748 312.75,74.8082 309.5,74.5C 316.374,70.8962 323.374,67.5629 330.5,64.5 Z"/></g>
<g><path style="opacity:1" fill="#214333" d="M 464.5,47.5 C 464.5,48.5 464.5,49.5 464.5,50.5C 460.51,49.6155 457.677,50.9489 456,54.5C 455.1,64.4952 454.267,74.4952 453.5,84.5C 453.123,92.1299 454.956,99.1299 459,105.5C 460.731,107.617 462.898,109.117 465.5,110C 480.859,112.478 489.526,105.978 491.5,90.5C 493.094,79.0267 493.594,67.36 493,55.5C 492.292,54.6195 491.458,53.9528 490.5,53.5C 487.599,52.8928 485.266,51.5595 483.5,49.5C 491.616,49.0613 499.616,49.728 507.5,51.5C 506.051,52.1719 504.718,52.8386 503.5,53.5C 501.629,53.8588 500.129,54.8588 499,56.5C 497.491,68.1179 496.491,79.7845 496,91.5C 494.008,107.495 485.008,115.828 469,116.5C 450.86,114.845 442.693,104.845 444.5,86.5C 445.436,74.8412 445.602,63.1746 445,51.5C 442.834,50.2685 440.667,49.2685 438.5,48.5C 439.871,47.2132 441.705,46.5465 444,46.5C 450.814,47.2543 457.647,47.5876 464.5,47.5 Z"/></g>
<g><path style="opacity:1" fill="#224534" d="M 620.5,84.5 C 629.256,88.3771 637.922,92.5438 646.5,97C 645.975,97.6924 645.308,98.1924 644.5,98.5C 640.461,96.7171 636.961,97.3837 634,100.5C 627.288,114.925 620.288,129.258 613,143.5C 611.448,148.104 612.782,151.437 617,153.5C 617.749,154.635 617.583,155.635 616.5,156.5C 608.955,152.561 601.288,148.894 593.5,145.5C 592.614,144.675 592.281,143.675 592.5,142.5C 594.884,142.443 597.218,142.777 599.5,143.5C 601.383,143.124 602.883,142.124 604,140.5C 609.262,128.922 614.929,117.588 621,106.5C 622.979,102.045 624.812,97.5446 626.5,93C 625.882,90.3277 624.216,88.4943 621.5,87.5C 620.614,86.675 620.281,85.675 620.5,84.5 Z"/></g>
<g><path style="opacity:1" fill="#b1c5bb" d="M 591.5,81.5 C 590.744,85.767 589.411,89.767 587.5,93.5C 587.861,89.0845 589.194,85.0845 591.5,81.5 Z"/></g>
<g><path style="opacity:1" fill="#6e8379" d="M 536.5,81.5 C 535.61,87.1662 533.943,92.4995 531.5,97.5C 532.39,91.8338 534.057,86.5005 536.5,81.5 Z"/></g>
<g><path style="opacity:1" fill="#234535" d="M 591.5,81.5 C 589.194,85.0845 587.861,89.0845 587.5,93.5C 581.779,107.343 577.113,121.676 573.5,136.5C 572.167,136.5 570.833,136.5 569.5,136.5C 562.45,115.332 554.45,94.6654 545.5,74.5C 545.728,72.6453 545.061,71.8119 543.5,72C 542.331,74.0065 541.665,76.1732 541.5,78.5C 540.807,81.9415 539.807,85.2748 538.5,88.5C 536.928,91.2154 535.928,94.2154 535.5,97.5C 534.699,99.0418 534.366,100.708 534.5,102.5C 533.073,104.148 532.24,106.148 532,108.5C 531.192,112.027 531.359,115.36 532.5,118.5C 534.03,120.346 536.03,121.346 538.5,121.5C 538.5,122.5 538.5,123.5 538.5,124.5C 530.413,122.899 522.747,120.233 515.5,116.5C 518.837,115.911 522.004,114.911 525,113.5C 526.943,107.964 529.11,102.631 531.5,97.5C 533.943,92.4995 535.61,87.1662 536.5,81.5C 537.354,77.4166 538.521,73.4166 540,69.5C 540.667,66.5 540.667,63.5 540,60.5C 537.894,58.5397 535.727,56.7064 533.5,55C 533.833,54.5 534.167,54 534.5,53.5C 539.161,54.999 543.828,56.499 548.5,58C 557.129,78.0939 565.629,98.2606 574,118.5C 578.868,105.061 583.035,91.3945 586.5,77.5C 586.281,76.062 585.781,74.7287 585,73.5C 582.594,72.4353 580.427,71.1019 578.5,69.5C 579.167,69.1667 579.833,68.8333 580.5,68.5C 587.865,70.524 595.198,72.524 602.5,74.5C 602.5,75.5 602.5,76.5 602.5,77.5C 599.482,77.3354 596.482,77.502 593.5,78C 592.177,78.8159 591.511,79.9826 591.5,81.5 Z"/></g>
<g><path style="opacity:1" fill="#a4b7af" d="M 534.5,102.5 C 533.032,107.714 532.365,113.047 532.5,118.5C 531.359,115.36 531.192,112.027 532,108.5C 532.24,106.148 533.073,104.148 534.5,102.5 Z"/></g>
<g><path style="opacity:1" fill="#8a9d94" d="M 538.5,88.5 C 538.472,91.9164 537.472,94.9164 535.5,97.5C 535.928,94.2154 536.928,91.2154 538.5,88.5 Z"/></g>
<g><path style="opacity:1" fill="#7d978b" d="M 545.5,74.5 C 544.883,74.3893 544.383,74.056 544,73.5C 543.626,75.4913 542.793,77.158 541.5,78.5C 541.665,76.1732 542.331,74.0065 543.5,72C 545.061,71.8119 545.728,72.6453 545.5,74.5 Z"/></g>
<g><path style="opacity:1" fill="#c4d6ce" d="M 490.5,53.5 C 491.458,53.9528 492.292,54.6195 493,55.5C 493.594,67.36 493.094,79.0267 491.5,90.5C 491.794,78.1167 491.46,65.7834 490.5,53.5 Z"/></g>
<g><path style="opacity:1" fill="#b0bfb7" d="M 483.5,49.5 C 491.692,48.2447 500.025,48.2447 508.5,49.5C 508.5,50.8333 508.5,52.1667 508.5,53.5C 506.833,53.5 505.167,53.5 503.5,53.5C 504.718,52.8386 506.051,52.1719 507.5,51.5C 499.616,49.728 491.616,49.0613 483.5,49.5 Z"/></g>
<g><path style="opacity:1" fill="#afbfb7" d="M 464.5,47.5 C 457.647,47.5876 450.814,47.2543 444,46.5C 441.705,46.5465 439.871,47.2132 438.5,48.5C 437.596,47.791 437.263,46.791 437.5,45.5C 446.701,45.4663 455.701,46.1329 464.5,47.5 Z"/></g>
<g><path style="opacity:1" fill="#788e80" d="M 470.5,17.5 C 449.802,17.3485 429.136,18.0152 408.5,19.5C 416.609,17.9317 424.942,17.0984 433.5,17C 446.007,16.1735 458.34,16.3401 470.5,17.5 Z"/></g>
<g><path style="opacity:1" fill="#234736" d="M 421.5,787.5 C 437.671,786.178 446.838,793.511 449,809.5C 451.048,833.434 440.881,849.601 418.5,858C 413.566,859.16 408.566,859.66 403.5,859.5C 403.5,858.5 403.5,857.5 403.5,856.5C 420.105,854.237 431.438,845.237 437.5,829.5C 436.833,829.167 436.167,828.833 435.5,828.5C 421.747,836.082 411.58,832.749 405,818.5C 402.669,803.821 408.169,793.488 421.5,787.5 Z"/></g>
<g><path style="opacity:1" fill="#9eb3aa" d="M 439.5,807.5 C 440.761,812.9 440.428,818.233 438.5,823.5C 438.833,818.167 439.167,812.833 439.5,807.5 Z"/></g>
<g><path style="opacity:1" fill="#bfccc4" d="M 419.5,794.5 C 418.155,796.697 416.989,799.03 416,801.5C 415.501,805.821 415.334,810.154 415.5,814.5C 412.891,808.921 413.057,803.254 416,797.5C 417.039,796.29 418.206,795.29 419.5,794.5 Z"/></g>
<g><path style="opacity:1" fill="#f9faf9" d="M 439.5,807.5 C 439.167,812.833 438.833,818.167 438.5,823.5C 431.227,827.963 424.394,827.297 418,821.5C 416.097,819.559 415.264,817.226 415.5,814.5C 415.334,810.154 415.501,805.821 416,801.5C 416.989,799.03 418.155,796.697 419.5,794.5C 424.193,790.688 429.193,790.521 434.5,794C 437.845,797.867 439.511,802.367 439.5,807.5 Z"/></g>
<g><path style="opacity:1" fill="#b0bfb8" d="M 488.5,824.5 C 485.041,823.692 481.541,823.025 478,822.5C 474.459,823.025 470.959,823.692 467.5,824.5C 467.5,824.167 467.5,823.833 467.5,823.5C 473.353,821.601 479.353,821.101 485.5,822C 486.942,822.377 487.942,823.21 488.5,824.5 Z"/></g>
<g><path style="opacity:1" fill="#294b3a" d="M 524.5,783.5 C 533.41,782.477 542.077,780.811 550.5,778.5C 553.455,777.841 556.455,777.508 559.5,777.5C 553.526,802.198 547.36,826.864 541,851.5C 538.179,853.506 535.012,854.839 531.5,855.5C 539.622,832.799 546.955,809.799 553.5,786.5C 543.039,788.022 532.706,790.188 522.5,793C 520.804,795.587 519.804,798.421 519.5,801.5C 518.5,801.5 517.5,801.5 516.5,801.5C 516.553,795.804 516.22,790.138 515.5,784.5C 518.713,784.81 521.713,784.477 524.5,783.5 Z"/></g>
<g><path style="opacity:1" fill="#fdfae4" d="M 573.5,899.5 C 572.571,900.315 571.571,901.148 570.5,902C 542.491,908.783 513.491,913.283 483.5,915.5C 478.167,915.5 472.833,915.5 467.5,915.5C 488.398,913.804 509.398,911.638 530.5,909C 544.797,905.676 559.131,902.509 573.5,899.5 Z"/></g>
<g><path style="opacity:1" fill="#d8c68c" d="M 227.5,854.5 C 243.138,861.985 258.805,869.485 274.5,877C 286.782,881.82 299.116,886.486 311.5,891C 315.442,891.993 319.442,892.66 323.5,893C 326.511,893.743 329.178,895.076 331.5,897C 342.465,899.773 353.465,902.439 364.5,905C 377.083,907.194 389.75,908.694 402.5,909.5C 435.101,914.444 467.768,914.777 500.5,910.5C 509.578,909.859 518.578,908.692 527.5,907C 540.957,904.699 554.291,902.033 567.5,899C 587.254,891.914 607.254,885.247 627.5,879C 632.44,876.186 637.44,873.519 642.5,871C 645.643,870.441 648.643,869.774 651.5,869C 649.102,870.524 646.769,872.024 644.5,873.5C 621.481,883.842 597.814,892.508 573.5,899.5C 559.131,902.509 544.797,905.676 530.5,909C 509.398,911.638 488.398,913.804 467.5,915.5C 456.833,915.5 446.167,915.5 435.5,915.5C 416.246,913.91 396.912,911.743 377.5,909C 335.07,901.567 294.403,888.9 255.5,871C 245.955,865.772 236.621,860.272 227.5,854.5 Z"/></g>
<g><path style="opacity:1" fill="#bbc7c1" d="M 403.5,894.5 C 432.158,895.347 460.824,895.681 489.5,895.5C 477.205,897.03 464.705,897.697 452,897.5C 435.594,897.892 419.427,896.892 403.5,894.5 Z"/></g>
<g><path style="opacity:1" fill="#526e60" d="M 371.5,889.5 C 382.061,890.607 392.394,892.274 402.5,894.5C 399.833,894.5 397.167,894.5 394.5,894.5C 394.372,897.774 393.039,897.941 390.5,895C 391.5,894.667 392.5,894.333 393.5,894C 385.928,892.981 378.595,891.481 371.5,889.5 Z"/></g>
<g><path style="opacity:1" fill="#fbf7e1" d="M 402.5,909.5 C 435.155,911.006 467.821,911.34 500.5,910.5C 467.768,914.777 435.101,914.444 402.5,909.5 Z"/></g>
<g><path style="opacity:1" fill="#161716" d="M -0.5,915.5 C 144.833,915.5 290.167,915.5 435.5,915.5C 446.167,915.5 456.833,915.5 467.5,915.5C 472.833,915.5 478.167,915.5 483.5,915.5C 626.167,915.5 768.833,915.5 911.5,915.5C 911.5,916.167 911.5,916.833 911.5,917.5C 607.5,917.5 303.5,917.5 -0.5,917.5C -0.5,916.833 -0.5,916.167 -0.5,915.5 Z"/></g>
</svg>
